<svg id="Layer_1" data-name="Layer 1" xmlns="http://www.w3.org/2000/svg" xmlns:xlink="http://www.w3.org/1999/xlink" viewBox="0 0 3 82.08">
  <defs>
    <clipPath id="clip-path" transform="translate(-0.47 -1.43)">
      <rect x="0.47" y="1.43" width="3" height="82.08" fill="none"/>
    </clipPath>
  </defs>
  <g clip-path="url(#clip-path)">
    <path d="M1.14,81.39l-.21-.22c0,.12,0,.25,0,.37l.17-.15m.46-4v-.18h0c0,.06,0,.12,0,.18h0M1.49,59.26h0v0h0m.06-27.45-.3,0c.13.14.19.14.3,0m.05-.66c0-.15,0-.23,0-.35a.59.59,0,0,0,0,.35m-.1-5c0-.13,0-.19-.15-.12l.15.12m-.09-.58.16-.05v0h0v0h0a.43.43,0,0,0,0-.07v-.11h0v.1c-.07-.05-.12,0-.17.14m.11-8.71s-.06-.11-.07-.15l-.1.09s.08.12.1.13.07,0,.07-.07m-.2-1.1a.56.56,0,0,1-.07.23c0,.07-.11.08-.17.12a.69.69,0,0,0,.41.49l0-.5c-.16-.07.06-.3-.14-.34m0-.24s-.05-.13-.06-.17,0,0,0,0l.05.17s.05,0,.05,0m.36-1.14c0-.09,0-.17-.06-.29v.36l.06-.07m.13-1.19c0,.15,0,.26,0,.35l-.07,0a1.32,1.32,0,0,0,0,.54,1.61,1.61,0,0,1,.05.44c0,.06,0,.13,0,.2h0c0-.25,0-.5,0-.74s.08,0,.11.14l0-.21a1.4,1.4,0,0,1-.09-.17v-.33c0-.11,0-.21,0-.31h0l0,.32c0-.07,0-.14,0-.25m-.13.07c0-.15,0-.27,0-.39h0c0,.16,0,.32,0,.47l0,0,0-.13m.24-5.71V8.4l.06-.08c0-.15,0-.3,0-.46s0-.28-.05-.35m-.12-.86v.73a2.56,2.56,0,0,0,.05-.27c0-.29,0-.58,0-.87a1.11,1.11,0,0,0,0-.19c0,.21,0,.4,0,.6m0,.74h0m0,0Zm-.06,3.35v.4a.68.68,0,0,0,0-.4M1.44,7.26c0,.06,0,.16,0,.23h0a1.77,1.77,0,0,0,0-.23s.05,0,.05,0M1.67,8a.43.43,0,0,1,0,0h0V8m.08,1.55h0v.14a.15.15,0,0,1-.05-.08s0,0,0-.07m0,.19V9.6a.37.37,0,0,1,.07.12s0,.06,0,0l0,0m0,.5h.09s0,.09,0,.14c0,.22,0,.22-.07.18s0-.21,0-.32m0,0a5.56,5.56,0,0,1,0,.58c0,.22,0,.44,0,.66l0-.14v-.14a.15.15,0,0,0,0,.1,1.21,1.21,0,0,0,0,.2c0,.09,0,.16,0,.11a4.08,4.08,0,0,1,0-.79v-.17s.08-.12.08-.32v-.07l0,0m-.12.27a.2.2,0,0,1,0,.14s0,0,0,0l0,0V10.5M1.36,4.29c-.07,0-.09,0-.09.15s0,.5,0,.73a1.73,1.73,0,0,1-.09.53.6.6,0,0,0,0,.62c0,.07-.09.17-.13.23s-.09.06-.13.1l-.08.12a3.6,3.6,0,0,0-.26,1,1,1,0,0,0,.06.5A4.08,4.08,0,0,1,.91,9,1.13,1.13,0,0,0,1,9.32s.05,0,.05,0a1,1,0,0,0,0-.25,7.17,7.17,0,0,1,0-1.31s.07-.09.09-.11a5.1,5.1,0,0,0,0,.57c0,.08.1.2.09.24-.07.19,0,.33,0,.49,0,.44,0,.84-.05,1.26,0,0,0,.09,0,.11s-.11,0-.15,0,0,.18,0,.26c.07-.1.11-.27.24-.19s.13.1.2.15,0,.25,0,.36c0,.34,0,.67,0,1.08,0-.13,0-.4.08-.29s0,.23,0,.34,0,.34,0,.49a3.76,3.76,0,0,0,0,.67c0-.14,0-.18,0-.35a7.22,7.22,0,0,1,0-1c0,.1,0,.21,0,.32v.21c0,.17,0,.21.05.12s0-.07.05-.13-.08-.15-.07-.42a3.17,3.17,0,0,0,0-.53,3.63,3.63,0,0,1,0-.58l.12.26c0-.18,0-.37,0-.55a1.42,1.42,0,0,1,0-.29H2v0c0-.18,0-.33-.05-.51,0,0,0-.05,0-.07a.69.69,0,0,0,0-.38l0,0,0-.06V9.12l0-.62,0-.09h0a.91.91,0,0,0,0,.23c0,.08,0,.1,0,.11l0-.05V8.53h0v.1l0-.09V8.26c0-.26,0-.51,0-.77,0-.1,0-.1,0-.1v.12c0,.32,0,.65,0,1a.56.56,0,0,1-.05-.08.2.2,0,0,1,0-.09s0-.07,0-.3V7.87c0-.17,0-.2-.06-.11v0l0-.37c0-.15,0-.29,0-.44l0,0V6.71l0,0c0,.11,0,.21,0,.32s-.14.1-.15,0a2.74,2.74,0,0,1,0-.5c0-.06,0-.11,0-.16,0-.24-.06-.46-.1-.69a1.31,1.31,0,0,1,0-.68.47.47,0,0,0,0-.16.75.75,0,0,1,0-.49m.43,8.64c0-.1,0-.2,0-.35a.63.63,0,0,0,0,.36h0m.1-.28c0-.16,0-.27,0-.4,0,0,0,0,0,.4m0,.16,0,0V13a1.11,1.11,0,0,0,0-.19m0-.76.06-.2c-.08,0-.08,0-.06.2m0-.74,0,.12v.07l0-.14a.2.2,0,0,1,0,0M1.68,5.94c0,.33,0,.34,0,.47a2.43,2.43,0,0,0,0-.47m-.11.37c.06-.24.06-.27,0-.35,0,.11,0,.22,0,.35m.13.12a1,1,0,0,0,0,.37.7.7,0,0,0,0-.37m0,0h0v0h0Zm.23-.35a.36.36,0,0,0,0-.1l0,0a6,6,0,0,0,0,.84c0-.29,0-.53,0-.78M1.72,7.4l0-.14,0,.13a.59.59,0,0,0,0,.08s0,0,0-.07M1.37,4.28h0m.52,12.41h.05c0-.08,0-.16-.05-.29v.28m-.27,14.8h0m0,0h0M1.87,36c0,.19,0,.36,0,.53,0,0,.06-.08.07-.24a.9.9,0,0,0,0-.29m0,.53h0Zm-.06-5.58a1.85,1.85,0,0,0,0-.43c0,.05-.05.1-.08.16a3.08,3.08,0,0,0,0,.55c0,.07,0,.18,0,.27s.06.15.09,0a.9.9,0,0,1,0-.13.81.81,0,0,0,.05-.39m.08-5,0,0c0-.1,0-.1,0,0m0,.89a.1.1,0,0,1,0,0l0-.28c-.06,0,0,.16,0,.25m0,11.72,0,0c0,.08,0,.16,0,.26a.52.52,0,0,0,0-.28m0-1.11a6.47,6.47,0,0,0,0,.88l0,0a.8.8,0,0,0,0-.15,6.43,6.43,0,0,0,0-.76m0-5.4a3,3,0,0,0,0,.43.71.71,0,0,0,0-.43m0-.78c0-.14,0-.25,0-.38,0,.09,0,.09,0,.38m0,15.39c0,.17,0,.33,0,.53a2.46,2.46,0,0,0,0-.69s-.07,0-.06.16m-.05,2.9h0M2,53.46v.23H2c0-.08,0-.17,0-.25v0m.05,25c0,.09,0,.19-.05.29,0-.22,0-.22,0-.33l0,0m-.12,0v0l-.06.1v0l.06-.09m.05-1v-.14l.09.07s0,.11,0,.15,0,0-.06-.08m-.1-.17a.25.25,0,0,1,0,.09l0-.08v0h0l0,0M2,76.83v-.09H2s0,.06,0,.08H2m0-.4h0a2.53,2.53,0,0,0,0-.28A.86.86,0,0,0,2,76v0c0,.16,0,.32,0,.48m0-1.88H2v0H2v.06M2,74c0-.1,0-.21,0-.34A.49.49,0,0,1,2,74m0-.76a2.26,2.26,0,0,1,0-.26s0,.16,0,.26m0-.41s0,0,0-.07,0-.07,0-.07,0,0,0,0,0,.11,0,.1m0-1.06s0,0,0,0V71.6a.24.24,0,0,1,0,.08s0,0,0,.06m.27-1.09v-.07l0,0s0,0,0,0a.3.3,0,0,1,0,.07M2,70.57H2a.16.16,0,0,1-.05-.13H2s0,.1,0,.15m0-.26a.91.91,0,0,0,0-.17,1.7,1.7,0,0,1,0-.22,2.54,2.54,0,0,1,0,.39M2,70.12a3.28,3.28,0,0,1,0-.55,1.71,1.71,0,0,1,0,.55m.91-.34s0,0,0-.06L3,69.64s0,0,0,0l-.12.09m-.26-.11s0,0,0,0a.21.21,0,0,1,0,.07s0,0,0,0a.24.24,0,0,1,0-.08M2,69.75a.53.53,0,0,1,0-.29,2.83,2.83,0,0,0,0,.29m0-.3s0,0,0-.06a1.16,1.16,0,0,1-.06-.55v-.08l.06,0,0,.11c0,.13,0,.21.06.32s0,.14,0,.21m.7-.29A.53.53,0,0,1,2.65,69s0,0,0,0a.94.94,0,0,1,.06.15s0,0,0,0m-.75,1v0h0v0m0-3.25a1.09,1.09,0,0,0,0-.18.27.27,0,0,1,0,.18m0-.44c0-.13,0-.26,0-.39a.57.57,0,0,1,0-.16.66.66,0,0,0,0-.14c0,.15,0,.4.05.5H2a.5.5,0,0,1,0,.12.16.16,0,0,1-.06.08M2,66.27s0,0,0,0a.06.06,0,0,1,0,0m-.1-.56c0,.1,0,.18,0,.28v-.07a.44.44,0,0,0,0-.2h0m-.06.54s0,.11,0,.16l0,0v-.1s0,0,0,0M2,64.68c0,.11,0,.2,0,.3l-.07,0s0,0,0,0a.9.9,0,0,1-.05-.19c0-.15,0-.11.06-.09l.09,0v-.27H2a.4.4,0,0,0,.25.27.53.53,0,0,0-.25.28v-.14A.25.25,0,0,0,2,64.68m0-.39a1.22,1.22,0,0,1-.07.17c0-.19,0-.35,0-.51s0-.35,0-.52a.51.51,0,0,0-.06-.36s0-.1,0-.15,0,0,0,0c0-.19,0-.38,0-.57a.48.48,0,0,0,0-.17.12.12,0,0,0,.1,0s0,.06,0,.09l0,.06v0s0,.06,0,.09a.84.84,0,0,0,.14.63A.12.12,0,0,0,2,63.1.16.16,0,0,0,2,63c0,.15,0,.3,0,.44v.07s0,0,.05-.08,0,.22,0,.32H2l0,0V64a.5.5,0,0,0,0,.27m0-2.11H2m-.19,0v.12a.31.31,0,0,0,0-.11h0m-.05.72.06,0s0,.12-.06,0m0,1c0,.25,0,.25-.05.22s0-.15.05-.22m0,.39a1.52,1.52,0,0,1,0,.51l0-.1c0-.12,0-.24.06-.41m.36-3.42a1.14,1.14,0,0,1-.12-.22c0-.08,0-.14,0-.2s0-.08,0-.12a.55.55,0,0,0,.18.4.28.28,0,0,1,0,.1l0,0m-.3-.64c0,.15,0,.3.05.44h0a1.55,1.55,0,0,0,0-.33v-.12h0m-.06,0a.88.88,0,0,1,0,.16.28.28,0,0,0,0,.09l0-.13a.49.49,0,0,0,0-.12h0M2,59.93l-.11.12V60a.38.38,0,0,0,0-.15c0-.14,0-.29,0-.41h0l.05,0s0,0,0,0h0v-.09H2v.18a.74.74,0,0,0,0-.12.78.78,0,0,0,0,.14c0,.11,0,.2.06.33a.38.38,0,0,0,0-.1v.24m.81-.65s0,0,0,0,0,0,0,0l0,0s0,.05,0,.05m-1,0v.1h0a.31.31,0,0,0,0-.1Zm0,.39,0,0v.06s0,0,0-.08M2,59.09a1.78,1.78,0,0,1,0-.69v0c0,.23,0,.41,0,.6v0l0,0m.82-.32s0,0,0,0l0,0,0,0,0,.06m.09-.69L2.8,58s0-.08,0-.07a.91.91,0,0,1,.08.13s0,0,0,0M2,57.42l0,0-.05-.13H2v.16m0-.33A.13.13,0,0,1,1.92,57v0a.16.16,0,0,0,0-.08v-.06c0-.07,0-.14,0-.2s0,0,0,0l.08,0s0,0,0-.06H2v.26a.45.45,0,0,0,0,.13v.16Zm0-.69a.54.54,0,0,0,0-.19s0-.08,0-.12V55.9a1.34,1.34,0,0,1,.1-.38s0,.07,0,.11l0,0v-.15c0,.1,0,.21,0,.31a.34.34,0,0,1,0,.14,1.55,1.55,0,0,0,0,.21v-.06a.41.41,0,0,0,0-.07,1.33,1.33,0,0,1,0,.35M1.61,54v-.26a.57.57,0,0,1,0,.26m.36-.2a.36.36,0,0,1,0-.1l0-.13a1,1,0,0,0,0-.17l-.11-.24A2.42,2.42,0,0,1,1.92,53l0-.17.07-.12c0-.09-.06-.27-.11-.17s0,0,0-.09a.12.12,0,0,0,.08,0l-.1-.12h.29l0,0v0l0,.06a.3.3,0,0,0,0,.12,1.38,1.38,0,0,0,0,.29s0,0,0,.06,0,.23,0,.35v.69m-.21-1.08.09-.07c0,.08,0,.15,0,.25a1.59,1.59,0,0,1-.08-.18m-.09-.11c0,.1,0,.2,0,.34l0,.05-.08.06h0c0-.29,0-.56,0-.86l0,0c0,.09,0,.38,0,.45m0,.85h0c0,.06,0,.11,0,.16s0,.15,0,.11a2.51,2.51,0,0,1,0-.27M2,50.3s-.05-.09-.07-.13c0-.41,0-.83,0-1.25l0-.27-.13-.1a.28.28,0,0,0,0-.09c.1,0,.14,0,.14.2h0v.06c0,.38,0,.75,0,1.13,0,.15,0,.31,0,.46m-.18-1.43a.24.24,0,0,0,.09.08,1.05,1.05,0,0,0,0,.3c0,.2,0,.23-.06.28a.54.54,0,0,1,.06.11c0,.14,0,.28,0,.42l-.06-.14c0-.12,0-.26,0-.39h0s0,0,0-.05a.11.11,0,0,0,0,.05h0c0-.06,0-.12,0-.22a.26.26,0,0,0-.05.14,3.62,3.62,0,0,1,0-.58m-.19.42s0,0,0,.26c0-.13,0-.19,0-.26m0-1.08,0-.1s0-.11,0-.17V47.8l.1.12s-.06,0-.06.17h0l0,0a.14.14,0,0,0,0,.09m0-.44c0-.13,0-.25,0-.38v0l0,0a2.14,2.14,0,0,0,0,.32l-.08.06m.32-.19a.88.88,0,0,0-.12-.21.89.89,0,0,0,0-.15c0-.14,0-.27,0-.42h0s0,.05,0,.07h0V46.7h0c0-.13,0-.29,0-.39a1.3,1.3,0,0,1-.05.14c0-.23,0-.41,0-.58s0-.34.09-.37l0,0c0-.11,0-.2,0-.28v.6a.41.41,0,0,1,0-.07s0,0,0,.07a2.56,2.56,0,0,0,0,.56,4.87,4.87,0,0,1,0-.54v1.52c0,.08,0,.17,0,.25m0-2.41a.41.41,0,0,0,0-.09,2.64,2.64,0,0,1,0,.29s0,0,0,0a2.62,2.62,0,0,1,0-.29.07.07,0,0,1,0,0c0-.19,0-.36,0-.61l.14.29v.42m0-.67,0,0v-.19l0,.05c0-.15.05-.21,0-.35l0,0v0s0-.1,0-.14l0-.1h0l0-.2c-.05-.18,0-.27,0-.44h0a3.89,3.89,0,0,0,0-.44c0-.17,0-.36,0-.54a.63.63,0,0,1,0-.23l0,0a.45.45,0,0,0,.12-.16V42s0-.09,0-.14a4.27,4.27,0,0,0,0,.89l0,0c0,.17,0,.3,0,.45a4.16,4.16,0,0,0,0,.49.11.11,0,0,1,0-.05v.14h0c0,.24,0,.5,0,.7m0-1.62v-.7c0,.21,0,.42,0,.64v.06m.94,0a.54.54,0,0,1,0-.15s0-.05.06,0a.75.75,0,0,1,0,.16s-.05,0-.06,0m-.42-.49s0-.11,0-.13l0,.06v.06h0m.36-.81s-.07-.06-.07-.07,0,0,0,0l.08.07s0,0,0,0m-.89-.09,0-.1a.18.18,0,0,0-.07-.08v-.14a1.74,1.74,0,0,0,.07-.29c0,.19,0,.35,0,.52l0-.11v.2m0-.51s0-.09,0-.15,0-.07,0-.1V41m-.27,1.1h0m0,.39a1.64,1.64,0,0,1,.12.22v.05l-.09,0c0-.06,0-.12,0-.23m0,.24c0,.11,0,.19,0,.28a2,2,0,0,1,0-.24s0,0,0,0m-.17,1.59a1.23,1.23,0,0,1,.08.38c0,.12-.1.1-.16.06s0-.31,0-.44,0,0,0,0m.15.84c.06,0,.07.24.08.41s0,.24,0,.23l0-.23-.08-.07v-.34m0,.82.07.09c0,.15,0,.13-.07.13v-.22m1.24-9.32s0,0,0,0l0-.06,0,.05,0,0m.06-1.2c-.07-.17-.17,0-.28-.07l.12-.2c.1.07.2.08.16.27M3,34.34a.42.42,0,0,1-.12,0s0-.06,0-.06l.12,0s0,.07,0,.07M2,25v.14l-.2-.26a.38.38,0,0,0,.19-.39c0-.09-.05-.2-.06-.27a.46.46,0,0,1,0-.23.33.33,0,0,0,0-.37.25.25,0,0,0-.1-.15v-.16a1.15,1.15,0,0,0,0-.19A.4.4,0,0,1,1.86,23s0,0,0,.07,0-.07,0-.1,0,0,.06-.05a1.23,1.23,0,0,0,0-.13v1.16L2,24v1.07s0,0,0,0m-.29-1.61v0h0s0,0,0,0M2,4.06a.59.59,0,0,1,0-.14s0,0,0,0v.19m0-.45,0-.07s0-.08,0-.11a.08.08,0,0,1,0,0,.76.76,0,0,1,0,.14m0-.42a0,0,0,0,1,0,0H2v0M1.73,3V3.3h0V3h0M1.64,4.15c0,.18,0,.33,0,.52-.06,0-.06,0,0-.52m.07,13.94h0l0-.17c0,.13,0,.16,0,.18m0-.27v.25c-.09,0-.14,0-.16-.14l.16-.11m-.07-.9a.27.27,0,0,1,0-.09h0a.66.66,0,0,0,0-.61c0-.11,0-.21.08-.18a8.19,8.19,0,0,1,0,.86H1.6m.13-1,0-.1h0v.11m0,22.82,0,0a.15.15,0,0,0,0-.06h0v.09m0-1.46v0s0,0,0,0m0-.06v-.05a.43.43,0,0,1,0,.05M2,80.12l0,0,0,.11v-.07s0,0,0,.06v.17a.35.35,0,0,1-.11.08c0-.13,0-.27,0-.4M2,81.49v.08l-.05,0,.05,0m0,.57c0,.11,0,.21,0,.32s0,0,0,0a.17.17,0,0,1,0-.25s0,0,0,0m.58,1.12a.48.48,0,0,0,.08.18A3.55,3.55,0,0,0,3,82.23c.07-.66.1-1.27.13-1.92A1.23,1.23,0,0,0,3,80l-.08-.29s.13-.09.15-.15a1.41,1.41,0,0,0,.05-.35c0-.32,0-.63,0-1s0-.75,0-1.12,0-.72,0-1.09a3.1,3.1,0,0,0,0-.61,3.77,3.77,0,0,1,0-1c0-.1,0-.25-.11-.27A.61.61,0,0,1,3,74c.07-.12.14-.24.2-.36l-.12-.23c.12-.13.05-.33.05-.5,0-.33,0-.36-.21-.48a6.67,6.67,0,0,0,.3-1.3s0-.09,0-.13a4.77,4.77,0,0,1,0-1,.33.33,0,0,0,0-.32.52.52,0,0,1,0-.44.62.62,0,0,0,0-.59.65.65,0,0,1,0-.62.44.44,0,0,0,0-.26,1.67,1.67,0,0,0-.16-.7s0-.17,0-.26v-.41c.08-.11.17-.21.25-.31l-.18-.18.16-.09s0-.1,0-.15c0-.56,0-1.1,0-1.66a2,2,0,0,0-.1-.85A2.77,2.77,0,0,0,3.2,62a.32.32,0,0,1,0-.13c.17-.17-.07-.2,0-.37s.18-.2.06-.42a.45.45,0,0,1,0-.22.73.73,0,0,0,0-.46c0-.08-.07-.16-.1-.25s.13-.27,0-.47a.33.33,0,0,1,0-.37,1.09,1.09,0,0,0,.06-.65,2.26,2.26,0,0,1,0-.82c0-.16,0-.22-.1-.26l-.15,0a.56.56,0,0,0,.24-.66,2.33,2.33,0,0,1,0-.52,5.35,5.35,0,0,0,0-.58,2.75,2.75,0,0,1,0-.81.56.56,0,0,0,0-.17,4.34,4.34,0,0,1-.05-.63A5.81,5.81,0,0,1,3.22,53l-.15,0s0,0,0-.06,0-.21,0-.33a2.56,2.56,0,0,1,.12-.32s0-.09,0-.14a1.73,1.73,0,0,1,0-.75.45.45,0,0,0-.13-.48c.05-.15.19-.24.12-.42a1.58,1.58,0,0,1,0-.78q0-.12,0-.21c0-.21,0-.26-.14-.35l-.1-.07a1.22,1.22,0,0,1,.1-.34c.06-.11.13-.15,0-.26.08-.18,0-.33.12-.44s0-.12,0-.16a.58.58,0,0,1,0-.43.61.61,0,0,0,0-.27.81.81,0,0,1,0-.2,11.51,11.51,0,0,0,.06-1.18,4.44,4.44,0,0,0,0-.63c0-.34,0-.67,0-1s0-.48,0-.71l-.34-.12c.13-.18.17-.44.32-.58a.32.32,0,0,0,0-.35c-.12-.16-.07-.25-.09-.44,0,0,0-.06,0-.09S3,41.58,3,41.44c.07.07.22.17.2,0s0-.38-.11-.51a2.83,2.83,0,0,0,.13-.52c0-.46,0-.92,0-1.38s0-.92,0-1.38c0-.22,0-.44,0-.65,0,0,0-.08,0-.08s.06-.14,0-.24-.07-.4-.11-.61c.13-.23.17-.33,0-.55-.1,0-.16.12-.2-.07l.2.07a4.24,4.24,0,0,0,.09-.88l-.12.12A1.77,1.77,0,0,0,3.21,34l-.12-.12a1.23,1.23,0,0,0,.14-.77,2.48,2.48,0,0,1,0-.27c0-.24,0-.43,0-.69s0-.53,0-.82,0-.53-.18-.72c.17,0,.23-.12.19-.35a.83.83,0,0,1,0-.27,5.07,5.07,0,0,0,0-.55,4.92,4.92,0,0,1,0-.94c0-.1,0-.21,0-.32s0-.23,0-.35c0-.58,0-1.14,0-1.73,0-1.52-.06-3.06,0-4.59,0,0,0-.1,0-.16,0-.79,0-1.58-.1-2.38a2.6,2.6,0,0,1,0-.26c0-.23.07-.48.08-.72s0-.76,0-1.13c0-1.08,0-2.19,0-3.26,0-.6,0-1.17,0-1.76,0-.41,0-.81,0-1.21s0-.65,0-1,0-.89,0-1.34l0-2.39.1.13a.47.47,0,0,0,0-.44c-.09-.12-.12-.37,0-.42s.12-.18.06-.27a.54.54,0,0,1-.12-.38,16.35,16.35,0,0,0-.14-2,2.31,2.31,0,0,0-.31-1,.42.42,0,0,0-.15-.11c0,.19,0,.38-.07.57l-.27-.33-.08.18-.16-.1L2,1.9a.45.45,0,0,0,0-.19s-.06,0-.09,0l-.07.08s-.06-.11-.08,0v0a.84.84,0,0,0-.27-.29.14.14,0,0,0-.15,0,.23.23,0,0,0-.1.15c0,.42,0,.82,0,1.22,0,.11,0,.21,0,.31l0,.91s0,.05,0,0,.05-.17.14-.09l0,.2c.1,0,.1-.07.11-.16s.05-.27.07-.41v0c0,.66,0,1.32,0,2a1.3,1.3,0,0,0,0,.19c0-.19,0-.32,0-.42a2.15,2.15,0,0,1,0-.65c0,.11,0,.21.05.37,0-.32,0-.6.05-.84v.76a6.71,6.71,0,0,0,0,.78c0-.12.05-.21.07-.32s-.06-.14,0-.33a.91.91,0,0,0,0-.28,2,2,0,0,1,0-.49,6.79,6.79,0,0,0,0-.78.74.74,0,0,1,0-.47.25.25,0,0,0,0-.07,1.34,1.34,0,0,0,0-.19,1.39,1.39,0,0,1,0,.17v0c0-.08,0-.23,0-.23s0-.1,0-.19,0-.27,0-.41v0h0v.21a.92.92,0,0,0,0,.16V3c0,.43,0,.85,0,1.27,0,.07,0,.13,0,.21L2,4.36v.81a2.23,2.23,0,0,1,0-.37V4.63a8.72,8.72,0,0,0,0,1.25h0a1,1,0,0,1,0-.17c0,.9,0,1.8,0,2.7C2,8.6,2,8.78,2,9s0,.48,0,.71a.43.43,0,0,0,0,.11V10a1.35,1.35,0,0,0,0,.45v.16a2.65,2.65,0,0,0,0,.85c0,.12,0,.25,0,.37a.34.34,0,0,0,0-.1c0,.24,0,.48,0,.75l0-.06c0,.1,0,.2,0,.3s0,.05,0,.07V13c0,.29,0,.58,0,.87v.69s0,0,0,0,0-.12,0-.19c0,.12,0,.23,0,.36a3.11,3.11,0,0,0-.06-.52c0,.27,0,.5,0,.76L2,14.76v.05c0,.11,0,.21,0,.32H2v.16l-.12-.14v.33s.08-.06.12-.16v.12a1.82,1.82,0,0,1,0,.33s0,0,0,.05a.35.35,0,0,0,0,.06,1.09,1.09,0,0,1,0,.18.24.24,0,0,1,0,.08.64.64,0,0,1,0,.07c0,.1,0,.2,0,.3s0-.07,0-.11c0,.16,0,.23,0,.3h0c0,.05,0,.11,0,.15H2c0,.42,0,.83,0,1.27h0c0-.06,0-.3,0-.44,0,.42,0,.77,0,1.15,0-.15,0-.36,0-.52,0,.43,0,.9,0,1.32,0,.22,0,.43,0,.66v-.05a1.52,1.52,0,0,0,0,.21.57.57,0,0,0,0-.13c0-.18-.05-.38-.07-.56v-.13a2,2,0,0,1,0-.34s0,0,0,0a.34.34,0,0,0,0-.09v-.09c0-.08,0-.16,0-.26l0,.07v.2h0l0,0a1.14,1.14,0,0,0,0-.27c0-.1,0-.21,0-.19s.05-.11,0-.25a.79.79,0,0,1,0-.45.5.5,0,0,0,0-.34l0,0c0-.19,0-.35,0-.51s0-.33,0-.49-.08-.07,0-.24a2.83,2.83,0,0,0,0-.6v-.1a.89.89,0,0,1,.05.13c0-.16,0-.28,0-.41a.3.3,0,0,1,0,.1,2,2,0,0,0,0-.55,6.56,6.56,0,0,0,0,.89c0-.29,0-.57-.06-.86a.21.21,0,0,0-.09-.13s0,0-.05,0l0,.3v.19l0,0s0,.09,0,.13l-.1.12c-.06-.28.07-.54-.17-.72l-.12.34a.93.93,0,0,1,.13.31.18.18,0,0,0,.09.15c.21,0,.19.09.19.28h0c0,.07,0,.14-.08.22v.11h0l0,.39h0c0,.17,0,.34,0,.49l.1,0c0,.23,0,.46,0,.69l-.08-.12c0-.13,0-.26,0-.38a1.35,1.35,0,0,0,0,.37.1.1,0,0,0,0-.05.48.48,0,0,0-.2-.07v-.31c-.09.12-.05.22-.05.37s-.1.24,0,.39,0,0,0,0a.84.84,0,0,0,0,.18c0,.11.05.23.08.35l-.13.06c.11.12.22.27.39.25a.37.37,0,0,0,.14,0c0,.08,0,.16,0,.25a.64.64,0,0,0-.45-.14c-.09,0-.12.07-.17.17a.6.6,0,0,0,0,.35,1.68,1.68,0,0,1,.11.47,3.41,3.41,0,0,0,.07.65.21.21,0,0,1,0,.11c0,.25-.07.5-.11.75a1.67,1.67,0,0,0,0,.86.74.74,0,0,0-.07.21,1.53,1.53,0,0,0,0,.37,1,1,0,0,0,.23.65L1,23.58s-.07.07-.09.11a.2.2,0,0,0,0,.14c.16.05.17.21.19.36a1.49,1.49,0,0,1,0,.81,3.49,3.49,0,0,1-.19.39c.19,0,.23-.05.27-.28a1.43,1.43,0,0,1,.13-.38c0-.05.11-.06.16-.08a2,2,0,0,0,.11.2,1.62,1.62,0,0,0-.1.18.92.92,0,0,1,.13.24,1.66,1.66,0,0,0,0,.38c0-.08,0-.14,0-.21a1.77,1.77,0,0,1,0,.33l0,0a.88.88,0,0,1,0,.17.14.14,0,0,1,0,.06l0,.14V26l0,0a1.28,1.28,0,0,0,0,.19h0s0,0,0,0a.21.21,0,0,0,0-.06l0,.05c-.07,0,0,.19,0,.29v0h0a.34.34,0,0,0-.06-.06s0-.05,0-.07v.05a.38.38,0,0,0-.41,0,1,1,0,0,1,.24.63c0,.14,0,.28,0,.42a7.22,7.22,0,0,1,0,1,.44.44,0,0,0,.05.35.5.5,0,0,1,0,.18l0,.39-.17,0,.24.23a1,1,0,0,1-.07.24.36.36,0,0,0,0,.46l-.23.25s0,.05,0,.07l.3-.11a1.19,1.19,0,0,0,0,.2v-.21l.15-.06.13-.05c0-.23,0-.47,0-.71,0,0,0,0,0,.06a.5.5,0,0,0,0-.12v-.05l0,.07c0-.15,0-.3,0-.45s0-.52,0-.78c0-.06,0-.12,0-.18h0a1.79,1.79,0,0,1,0-.32c0-.14,0-.4,0-.43a1.35,1.35,0,0,0,0-.22,2,2,0,0,0-.09-.22c0,.34,0,.65,0,1v0c0-.32,0-.65,0-1a1.75,1.75,0,0,0-.05-.33v-.25c0-.15,0-.33,0-.49s.12-.27.2-.39v1.27a.48.48,0,0,0,0,.26v.29c0,1,0,1.94-.05,2.93,0,.26,0,.51,0,.76,0,.65,0,1.29,0,1.93,0,.34,0,.67,0,1s0,.87,0,1.3,0,.64,0,1c0,1.2,0,2.39,0,3.59V40h0a.68.68,0,0,0,0-.27c0,.05,0,.32-.08.2a2.51,2.51,0,0,0,0-.63c0-.06,0-.13,0-.19h0a1.16,1.16,0,0,0,0-.18s0,0-.05,0v0a3.08,3.08,0,0,1,0-.43.5.5,0,0,0,0-.13,2,2,0,0,0,.07-.66.86.86,0,0,0,0-.28,2.44,2.44,0,0,0,0-.27h0A.18.18,0,0,0,1.86,37V37c0-.11,0-.21,0-.31s0-.09,0-.13,0-.25,0-.31h0l0-.3a1.75,1.75,0,0,0,0-.51c0-.09,0-.15.05-.23a.64.64,0,0,0,0-.28,1,1,0,0,0,0-.11,1.79,1.79,0,0,0,0-.23l-.09-.09c0,.07,0,.12,0,.17s0,.08,0,.12h0a1.93,1.93,0,0,1,0,.6v0c0-.19,0-.38,0-.58h0l0-.74s0-.07,0-.1a.41.41,0,0,1,0,.11c0,.31.05.22.08.3,0-.2,0-.37.05-.59l.08.21c0-.25,0-.47-.06-.71h0c0-.17.09-.34.13-.51,0,0,0-.05,0-.06h0s0-.07,0-.12a.41.41,0,0,0,0,.11l-.09,0c0-.2,0-.41,0-.62a2.12,2.12,0,0,1,0-.56,2.52,2.52,0,0,0-.05.62c0-.07,0-.07,0-.33l-.06,0c0-.09,0-.18,0-.26a2.13,2.13,0,0,0-.05.61.35.35,0,0,1,0,.06h0l.07.29c0-.07,0-.09,0-.18,0,.15,0,.26,0,.33l-.05,0s0,0,0,0l-.35-.42a.68.68,0,0,0-.08.46.54.54,0,0,1-.1.43.75.75,0,0,0,0,.62l-.19.2a1,1,0,0,0,.2.69C1,34.68.9,34.75,1,35s.15.15.27.16l-.09.46c.11.13,0,.23,0,.38s0,.07,0,.1a3.08,3.08,0,0,0,.3,1s-.12.07-.14.12a1.05,1.05,0,0,0-.19.42,2.78,2.78,0,0,0,.1.78,1.11,1.11,0,0,0,.36.48c0,.15,0,.3,0,.46l0,0c0,.16-.08.09,0,.32l0,0h0c0,.07,0,.13,0,.18a1.8,1.8,0,0,1,0,.22.33.33,0,0,1-.2.29c0,.15.06.29.08.44l-.3.64.21.91.17-.16v.53c-.14,0-.22-.09-.32.1,0,.38.07.74.09,1.13,0,0-.06.12-.05.16a.82.82,0,0,1,0,.44,1,1,0,0,0,0,.31.22.22,0,0,0,.15.15c.06,0,.09-.08.11-.15,0,.26,0,.52,0,.77s0,.41,0,.62h0a2.9,2.9,0,0,0,0,.51v0a.49.49,0,0,0,0,.13,2.45,2.45,0,0,0,0,.27,1.11,1.11,0,0,1,0-.17.1.1,0,0,0,0,0c0,.14,0,.25,0,.37l0,0a2.45,2.45,0,0,0,0-.27c0,.12,0,.24,0,.35,0,.33,0,.66,0,1l.08,0a1.7,1.7,0,0,1,0,.23.94.94,0,0,0,0-.09c-.05.28,0,.3,0,.49l0,0c0,.2,0,.39,0,.58-.05,0-.1-.06-.14,0s-.09.16-.09.27c0,.3,0,.6,0,.9l-.23.19c.15,0,.17.08.15.24a.74.74,0,0,0-.05.22c0,.19.1.35.15.53s0,0,.06.05l.16.12v0c0,.28,0,.58,0,.87a.4.4,0,0,1-.05-.27s-.07-.09-.09-.07a.35.35,0,0,0-.16.18,2.14,2.14,0,0,0,.07.8c0-.17.08-.17.2-.22l0,0v.08c0,.05,0,.11,0,.17v.66a.51.51,0,0,0,0,.13h0a.11.11,0,0,0-.11.16,1.66,1.66,0,0,1,0,.44.29.29,0,0,1-.1.32.44.44,0,0,0-.08.21c.1.07.19,0,.16.19,0,0,.08,0,.11,0v0c0,.08,0,.18,0,.23s-.08,0-.09.08a.92.92,0,0,0,0,.16c0,.34,0,.67,0,1a2.44,2.44,0,0,1,0,.81.14.14,0,0,0,0,.09c.07.21.07.42.15.62V59l-.13-.13c0,.11,0,.23,0,.35l.09-.08v.43a3,3,0,0,0-.08-.32c0,.13,0,.26,0,.39l.13.13V60h0a.41.41,0,0,0-.05.09l.05,0v.31l-.09,0,0,.37-.13-.1-.09.35c.11.06,0,.12,0,.21a1.07,1.07,0,0,1,.06.29c0,.23,0,.35.19.42,0,.06,0,.11,0,.17a.69.69,0,0,0-.05.13l.05,0v.21c0,.33,0,.65,0,1,0,0,0,.09,0,.14-.18.2-.17.33,0,.57v.1l-.16,0c0,.15-.07.31-.1.46-.11,0-.22,0-.33-.06s-.14-.05-.16-.21a1.07,1.07,0,0,1,0-.53c0-.07,0-.19-.07-.21s-.2.23-.29.35L.72,64s0,0,0,0c-.1.21-.19.41-.29.61l.43.17c.06.11.22.29.27.38s0,.3.07.32.13.15.19.24a.33.33,0,0,0,.15.14v.28H1a3.49,3.49,0,0,1,.07,1.33c.12.2.16.08.28,0l.18.13v.16c-.12.1-.15.3-.25.46.25,0,0,.12.11.27l.14,0a.34.34,0,0,1,0,.1c0,.09,0,.19,0,.28s0,.47,0,.7h0c0,.27-.16.2-.34.27l.21.28-.3.12.18.83c.18.07.23.2.21.42h.06c0,.22,0,.43,0,.65s0,.2,0,.3-.06,0-.06,0a2.08,2.08,0,0,0,0,.23h0v.86s-.07.11-.09.17a.1.1,0,0,0,.09,0v.14h0a.37.37,0,0,0-.32.36,3.82,3.82,0,0,0,0,.82c0,.27.09.48.13.74a.82.82,0,0,1,0,.22,1.69,1.69,0,0,0-.11.7l.19.2c.08.07.18.2.29.22h0a.71.71,0,0,1,0,.2l0,0c-.05,0-.06,0-.06.2s0,.14,0,.21l-.33-.29-.09.08a.66.66,0,0,1,.06.2c0,.28-.06.53-.1.81a.75.75,0,0,0,0,.33,1.35,1.35,0,0,1,.07.46,2.6,2.6,0,0,0,0,.56c0,.06-.06.15-.06.21s.07.1.08.13a1.26,1.26,0,0,0,.21,1,.07.07,0,0,0,.06,0c.16-.07.13.09.17.23s-.19,0-.22,0-.17-.07-.27,0a1.24,1.24,0,0,0-.23.12s-.05,0,0,0a.43.43,0,0,0,.12,0,1.09,1.09,0,0,1,0,.18c0,.18-.11.29,0,.47,0,0,0,.09,0,.15s-.05.22-.07.29l.25,0c0,.19.07.35.23.36s.35,0,.53,0a.68.68,0,0,0,0,.14c0,.06.05.16.1.16a.2.2,0,0,0,.15-.15A1.23,1.23,0,0,0,2.31,83c0-.73.07-1.46.1-2.19a1.2,1.2,0,0,0,0-.19.58.58,0,0,0,0-.23c0-.06-.09-.06-.13-.09a4.3,4.3,0,0,0,.18-.64c0-.28,0-.54,0-.83s0-.31.19-.36c0,.19,0,.38,0,.57,0,1,0,1.93,0,2.9,0,.41,0,.81,0,1.23M1.67,5.25v.33h0c0-.1.05-.22,0-.33m.2,10.56,0-.05a1,1,0,0,0,0-.11l0,0v.12m0,.5c0-.11,0-.21,0-.34-.06,0,0,.19,0,.31l0,0m0,.5a.86.86,0,0,0,0,.45.94.94,0,0,0,0-.45M1.61,32.35a.13.13,0,0,1,0-.06.21.21,0,0,1,0-.06s0,.06,0,.09l0,0" transform="translate(-0.47 -1.43)" fill="#373535"/>
  </g>
</svg>
