<?xml version="1.0" encoding="UTF-8" standalone="no"?>
<!DOCTYPE svg PUBLIC "-//W3C//DTD SVG 1.1//EN" "http://www.w3.org/Graphics/SVG/1.1/DTD/svg11.dtd">
<svg width="100%" height="100%" viewBox="0 0 1490 1490" version="1.1" xmlns="http://www.w3.org/2000/svg" xmlns:xlink="http://www.w3.org/1999/xlink" xml:space="preserve" xmlns:serif="http://www.serif.com/" style="fill-rule:evenodd;clip-rule:evenodd;stroke-linejoin:round;stroke-miterlimit:2;">
    <g id="Layer-3" serif:id="Layer 3" transform="matrix(4.16667,0,0,4.16667,-182,-157)">
        <g transform="matrix(1,0,0,1,346.113,273.45)">
            <path d="M0,-51.284C3.598,-40.272 4.262,-14.761 4.262,-14.761L-1.854,-14.413L4.262,-14.761C4.109,10.217 -2.002,36.55 -2.002,36.55L-14.42,34.227C-15.828,47.58 -27.027,82.042 -27.027,82.042C-28.164,81.159 -27.027,82.042 -27.027,82.042C-35.558,102.809 -40.445,115.423 -43.669,119.106C-51.475,72.206 -102.789,57.082 -102.789,57.082C-143.708,44.645 -191.354,63.411 -211.062,72.676C-202.743,34.364 -185.854,24.883 -185.854,24.883L-190.891,21.476C-176.225,9.327 -160.521,0.858 -160.521,0.858L-165.558,-2.969C-154.225,-14.006 -144.2,-19.121 -144.2,-19.121C-137.78,-23.264 -124.236,-29 -124.236,-29L-131.335,-35.006C-129.134,-39.227 -111.477,-48.196 -111.477,-48.196C-111.477,-48.196 -98.921,-58.122 -97.394,-70.67L-102.145,-70.5C-102.568,-75.437 -101.466,-85.593 -114.191,-100.177L-113.514,-103.231C-113.514,-103.231 -83.157,-98.989 -72.468,-109.671L-73.825,-111.367C-73.825,-111.367 -94.509,-118.833 -104.351,-129.345C-104.351,-129.345 -76.37,-132.229 -68.057,-145.965C-68.057,-145.965 -67.741,-147.281 -67.725,-147.45C-85.354,-147.84 -116.558,-152.339 -113.391,-155.561C-113.407,-155.57 -111.891,-164.228 -111.891,-164.228C-111.891,-164.228 -96.336,-170.39 -93.558,-170.228C-93.558,-170.228 -75.353,-156.646 -70.092,-156.315C-70.092,-156.315 -53.82,-152.413 -45.336,-145.626L-47.542,-142.071C-47.542,-142.071 -30.591,-130.541 -15.489,-117.315L-22.955,-110.858C-22.955,-110.858 -10.891,-97.117 -4.29,-84.405C-4.29,-84.405 7.74,-65.418 8.758,-53.21" style="fill:rgb(35,31,32);fill-rule:nonzero;"/>
        </g>
        <g transform="matrix(1,0,0,1,183,178.887)">
            <path d="M0,-37.22C-5.065,-33.564 -24.222,-27.76 -30.948,-31.069L-33.812,-30.664L-34.444,-30.582C-34.925,-30.509 -36.726,-31.232 -33.556,-33.109C-28.264,-36.241 -19.444,-44.775 -15.569,-49.887C-13.902,-52.086 -10.71,-54.064 -5.173,-53.607C3.556,-52.887 3.074,-46.472 10.981,-45.081M72.333,-83.664C72.333,-83.664 77.156,-85.142 80.329,-86.101C79.956,-82.631 79.498,-79.874 79.464,-79.577C83.994,-84.888 99.259,-88.553 104.288,-89.631C102.981,-86.228 104.288,-89.631 104.288,-89.631C116.835,-91.563 120.1,-91.72 126.111,-90.998C126.37,-88.739 126.704,-86.183 126.704,-86.183C132.63,-92.257 143.704,-95.442 143.704,-95.442C146.519,-96.379 147.822,-97.168 149.407,-97.294C160.615,-101.001 161.998,-102.964 161.998,-102.964C163.823,-104.312 162.667,-103.498 162.667,-103.498C173.667,-111.387 173.907,-115.507 173.907,-115.507C178.828,-137.209 171.04,-137.556 171.04,-137.556C174.061,-126.154 163.998,-120.105 157.381,-117.416C158.043,-120.062 157.381,-117.416 157.381,-117.416C153.704,-115.294 148.252,-116.084 143.756,-115.201C145.266,-117.552 145.062,-119.146 144.654,-118.756C143.586,-117.67 133.32,-115.464 126.787,-114.378C129.961,-117.738 126.787,-114.378 126.787,-114.378C118.365,-112.144 110.973,-114.336 101.76,-113.852C104.186,-118.518 102.862,-122.633 102.862,-122.633C96.602,-118.077 82.738,-115.6 77.461,-114.785C77.932,-116.256 76.745,-112.756 77.461,-114.785C77.622,-115.243 71.76,-113.555 49.974,-114.421C51.5,-116.067 53.248,-119.24 53.723,-125.297C53.757,-125.866 40.488,-115.387 25.862,-113.861C25.862,-113.861 21.034,-111.477 18.565,-108.473C17.666,-110.883 16.775,-114.591 17.896,-118.052C17.896,-118.052 15.35,-117.034 14.493,-115.677C13.653,-114.319 4.491,-101.593 0.597,-100.244C-3.314,-98.887 -8.905,-96.68 -10.941,-93.117L-11.79,-91.768C-11.79,-91.768 -15.685,-92.608 -18.229,-97.699L-18.577,-99.395L-19.596,-97.868C-19.596,-97.868 -23.489,-80.069 -28.241,-77.345C-28.241,-77.345 -29.089,-74.47 -28.58,-74.122C-28.071,-73.791 -33.84,-74.122 -38.243,-70.558C-38.243,-70.558 -43.164,-69.379 -44.352,-70.397L-44.683,-68.87C-44.683,-68.87 -43.164,-64.297 -43.843,-63.279C-43.843,-63.279 -42.655,-42.757 -54.193,-40.542C-54.193,-40.542 -60.709,-39.66 -65.451,-39.914L-71.313,-44.962C-71.313,-44.962 -73.52,-52.42 -68.09,-61.243C-68.09,-61.243 -77.592,-58.35 -80.808,-51.402C-80.808,-51.402 -87.934,-40.211 -98.785,-45.471C-98.785,-45.471 -100.821,-48.687 -103.706,-42.069C-106.59,-35.46 -110.493,-27.154 -104.215,-19.519C-104.215,-19.519 -111.002,9.14 -91.837,18.303L-89.122,17.615C-89.122,17.615 -92.176,15.071 -90.988,11.176C-89.801,7.282 -85.736,1.513 -85.736,1.513C-85.736,1.513 -80.646,17.285 -72.001,19.143L-69.108,18.634C-69.108,18.634 -72.671,16.437 -71.823,12.025C-70.983,7.613 -65.723,-0.014 -64.875,-0.353C-64.018,-0.693 -61.473,15.071 -44.174,16.598L-42.315,15.758C-42.315,15.758 -54.354,9.48 -38.583,-5.783C-38.583,-5.783 -29.768,4.737 -20.104,2.192L-18.738,0.826C-18.738,0.826 -29.768,-1.202 -23.32,-10.016C-23.32,-10.016 -16.193,-19.349 3.65,-22.225C3.65,-22.225 21.45,-27.824 25.353,-39.524L27.211,-38.345C27.211,-38.345 27.058,-21.954 15.511,-18.832C14.078,-18.747 8.461,-18.017 4.491,-11.544C4.491,-11.544 -4.494,-0.523 -6.369,16.089C-6.369,16.089 -17.721,21.858 -26.883,11.685C-26.883,11.685 -28.071,12.364 -29.089,14.401C-30.107,16.437 -26.713,30.342 -20.436,35.093C-20.436,35.093 -40.619,37.638 -51.979,20C-51.979,20 -54.863,25.93 -54.702,29.154C-54.524,32.369 -49.951,49.337 -45.879,53.232C-45.879,53.232 -65.384,50.686 -75.047,34.753C-75.047,34.753 -75.896,43.916 -74.708,46.622C-73.52,49.337 -67.929,66.467 -60.454,73.067C-60.454,73.067 -62.838,77.649 -59.945,84.606C-59.945,84.606 -58.257,87.489 -56.56,87.321C-56.56,87.321 -56.051,82.077 -53.175,81.059C-53.175,81.059 -39.778,100.336 -27.222,94.225C-27.222,94.225 -35.486,90.119 -37.582,78.344C-33.273,78.942 -29.42,80.872 -29.42,80.872C-27.492,81.921 -20.111,85.002 -8.15,78.724C-8.15,78.724 -21.962,79.176 -26.544,64.261C-26.866,63.217 -27.146,62.25 -27.392,61.342C-24.898,59.162 -22.242,57.194 -19.646,55.471C-16.694,53.885 -10.611,50.669 -0.931,45.774C13.475,38.478 7.036,33.897 8.385,28.475C9.751,23.054 14.841,5.585 22.978,2.022C22.978,2.022 17.802,-0.345 16.343,-3.883C21.476,-3.034 36.145,1.284 57.575,23.385C57.575,23.385 54.69,-0.353 32.98,-13.75C32.861,-13.835 32.726,-13.902 32.606,-13.979C54.08,-10.449 81.822,-14.089 81.822,-14.089C55.811,-24.092 46.563,-34.934 43.39,-40.389C70.793,-38.404 85.725,-49.705 85.725,-49.705C46.715,-50.044 39.267,-60.734 39.267,-60.734L39.419,-65.307L39.182,-65.561L45.019,-68.022C45.019,-68.022 45.409,-69.49 46.224,-73.613L46.224,-73.621C46.383,-73.665 51.225,-76.362 54.851,-77.402" style="fill:rgb(35,31,32);fill-rule:nonzero;"/>
        </g>
    </g>
</svg>
