<?xml version="1.0" encoding="UTF-8" standalone="no"?>
<!DOCTYPE svg PUBLIC "-//W3C//DTD SVG 1.1//EN" "http://www.w3.org/Graphics/SVG/1.1/DTD/svg11.dtd">
<svg width="100%" height="100%" viewBox="0 0 1200 1199" version="1.1" xmlns="http://www.w3.org/2000/svg" xmlns:xlink="http://www.w3.org/1999/xlink" xml:space="preserve" xmlns:serif="http://www.serif.com/" style="fill-rule:evenodd;clip-rule:evenodd;stroke-linejoin:round;stroke-miterlimit:2;">
    <g id="Layer-1" serif:id="Layer 1" transform="matrix(4.16667,0,0,4.16667,-311,-324)">
        <g transform="matrix(1,0,0,1,176.14,224.492)">
            <path d="M0,-28.092C-0.01,-28.362 -0.36,-28.552 -0.51,-28.262C-0.57,-28.142 -0.63,-28.032 -0.69,-27.912C-4.69,-22.402 -12.78,-21.382 -18.9,-22.612C-24.82,-23.802 -29.63,-27.192 -35.88,-25.752C-42.16,-24.292 -46.38,-20.782 -50.58,-16.042C-51.92,-14.532 -51.06,-12.582 -50.67,-10.792C-50.365,-9.418 -50.157,-7.521 -50.209,-5.627C-50.138,-4.459 -50.328,-3.244 -50.481,-2.072C-50.589,-1.25 -50.738,-0.355 -51.035,0.46C-49.987,-0.068 -49.417,-1.398 -49.07,-2.412C-47.87,-5.892 -47.49,-8.952 -43.91,-10.922C-39.95,-13.102 -35.74,-12.082 -32.66,-9.042C-32.46,-8.842 -32.01,-8.152 -31.65,-8.042C-30.89,-7.822 -28.81,-8.522 -28.15,-8.562C-25.44,-8.722 -22.77,-8.742 -20.09,-9.172C-16.92,-9.682 -13.8,-11.602 -11.18,-13.352C-6.35,-16.602 -1.31,-21.912 -0.05,-27.812L-0.02,-27.842C0.04,-27.932 0.03,-28.022 0,-28.092" style="fill:rgb(35,31,32);fill-rule:nonzero;"/>
        </g>
        <g transform="matrix(1,0,0,1,275.33,303.401)">
            <path d="M0,-29.811C-0.76,-31.385 -1.323,-33.095 -1.654,-34.849C-2.381,-36.175 -2.558,-38.088 -2.282,-39.412C-2.044,-40.56 -1.461,-41.472 -0.678,-42.209C-0.755,-42.2 -0.832,-42.188 -0.91,-42.181C-0.96,-42.191 -1.01,-42.191 -1.061,-42.161C-2.5,-41.861 -3.79,-40.521 -4.5,-39.331C-6.26,-36.401 -4.14,-32.941 -5.89,-29.941C-5.906,-29.913 -5.929,-29.889 -5.946,-29.861C-6.353,-28.966 -7.017,-28.148 -7.797,-27.516C-8.998,-26.544 -10.323,-25.751 -11.592,-24.872C-12.257,-24.411 -12.878,-23.887 -13.499,-23.367C-12.857,-22.274 -12.548,-20.907 -12.653,-19.838C-12.728,-19.091 -13.06,-18.416 -13.504,-17.816C-14.001,-17.031 -14.685,-16.316 -15.23,-15.691C-16.76,-13.96 -18.44,-12.92 -20.53,-12C-23.83,-10.551 -26.87,-9.641 -29.73,-7.351C-32.811,-4.881 -34.62,-1.731 -36.33,1.779C-37.13,3.429 -37.79,5.25 -38.271,7.009C-38.425,7.571 -38.674,8.075 -38.958,8.557C-39.462,9.846 -39.945,11.092 -40.328,12.398C-38.305,10.075 -36.995,7.159 -34.59,5.169C-31.89,2.919 -28.83,1.149 -25.63,-0.281C-22.14,-1.851 -17.98,-2.831 -14.15,-2.411C-12.508,-2.233 -10.973,-1.801 -9.372,-1.531C-9.01,-1.855 -8.673,-2.214 -8.393,-2.663C-7.738,-3.709 -7.192,-4.816 -6.568,-5.88C-6.564,-5.887 -6.561,-5.894 -6.556,-5.901C-6.287,-6.427 -6.004,-6.95 -5.67,-7.46C-4.65,-9.031 -3.62,-10.551 -2.521,-12.071C-0.4,-15.021 0.36,-18.521 1.439,-21.911C2.35,-24.741 1.22,-27.271 0,-29.811" style="fill:rgb(35,31,32);fill-rule:nonzero;"/>
        </g>
        <g transform="matrix(1,0,0,1,301.45,279.016)">
            <path d="M0,-125.646C-0.28,-123.876 -0.42,-122.016 -0.46,-120.226C-0.521,-117.866 -0.83,-115.456 -1.98,-113.376C-2.86,-111.796 -2.771,-109.846 -2.771,-108.116C-2.771,-105.736 -3.99,-103.706 -4.37,-101.396C-4.55,-100.306 -4.92,-99.406 -5.4,-98.596C-5.01,-100.816 -4.82,-103.076 -4.95,-105.316C-5.08,-107.456 -6.021,-110.836 -5.41,-112.766C-4.891,-114.386 -5.03,-116.356 -5.47,-117.976C-6.76,-122.686 -9.38,-126.706 -11.8,-130.896C-12.33,-131.796 -12.86,-132.246 -12.29,-133.106C-11.71,-133.976 -11.15,-134.826 -10.3,-135.486C-9.76,-135.906 -8.67,-136.276 -7.69,-136.766C-6.79,-136.646 -6,-136.276 -5.45,-135.306C-4.49,-133.626 -2.97,-132.026 -1.7,-130.566C-1.13,-129.916 -0.431,-129.386 0.229,-128.836C0.66,-128.476 0.05,-125.956 0,-125.646M-20.101,-82.636C-22.99,-78.886 -25.32,-74.846 -28.69,-71.486C-30.271,-69.916 -33.49,-68.746 -35.75,-68.686C-36.7,-68.666 -37.9,-68.026 -38.45,-67.246C-39.91,-65.196 -41.47,-66.906 -43.24,-67.436C-44.55,-67.816 -45.811,-67.266 -46.811,-66.386C-50.33,-63.256 -53.92,-58.806 -59.05,-58.795C-61.28,-58.786 -64.021,-59.946 -66.58,-60.286C-64.28,-61.276 -62.351,-62.926 -60.38,-64.806C-57.38,-67.656 -54.891,-70.406 -53.92,-74.516C-53.08,-78.086 -53.62,-81.656 -55.9,-84.556C-57.58,-86.696 -55.01,-89.496 -54.58,-91.746C-54.46,-92.386 -54.44,-93.096 -54.33,-93.756C-54.25,-94.256 -52.271,-95.686 -51.94,-95.976C-50.59,-97.176 -49.641,-98.586 -48.75,-100.136C-48.32,-100.896 -47.95,-101.686 -47.47,-102.426C-46.61,-103.746 -45.04,-103.836 -43.76,-104.386C-42.29,-105.006 -41.13,-106.326 -39.73,-106.876C-38.28,-107.446 -36.141,-106.746 -34.58,-106.746C-33.08,-106.756 -31.98,-107.176 -30.641,-107.806C-29.66,-108.276 -28.811,-108.566 -27.9,-108.766C-27.59,-108.006 -27.19,-107.286 -26.561,-106.546C-25.391,-105.176 -23.69,-103.376 -22.21,-102.336C-19.9,-100.716 -18.73,-98.566 -18,-95.876C-17.38,-93.596 -16.78,-91.086 -16.79,-88.716C-16.79,-86.426 -18.8,-84.306 -20.101,-82.636M-55.01,-119.096C-54.9,-119.606 -54.931,-120.196 -54.92,-120.716C-54.91,-122.196 -53.94,-123.026 -53.04,-123.996C-52.36,-124.736 -51.78,-125.466 -51.3,-126.346C-50.561,-127.676 -51.25,-129.376 -50.25,-130.616C-48.74,-132.486 -48.84,-134.566 -48.84,-136.886C-48.84,-138.016 -49.26,-138.436 -48.351,-139.676C-47.48,-140.856 -47.08,-141.936 -46.4,-143.226C-45.45,-145.046 -43.07,-144.736 -41.47,-144.946C-39.771,-145.166 -38.141,-145.166 -36.521,-145.756C-35.58,-146.096 -35.16,-146.746 -34.16,-145.996C-33.05,-145.166 -32.01,-145.336 -30.95,-144.226C-29.42,-142.616 -28.99,-139.486 -29.561,-137.456C-29.94,-136.076 -30.72,-135.216 -31.62,-134.326C-36.44,-135.746 -41.72,-137.426 -44.84,-132.566C-45.11,-132.126 -45.24,-131.626 -45.391,-131.146C-45.99,-129.166 -46.15,-129.176 -47.521,-128.096C-49.01,-126.916 -50.07,-125.726 -51.22,-124.236C-52.19,-122.996 -52.4,-121.396 -53.42,-120.096C-53.96,-119.396 -54.561,-118.816 -55.2,-118.326C-55.13,-118.576 -55.061,-118.826 -55.01,-119.096M9.229,-130.116C8.79,-135.876 6.689,-141.006 3.729,-145.756C2.939,-147.456 2.12,-149.006 0.819,-150.396C-0.94,-152.256 -2.98,-153.836 -4.73,-155.716C-7.91,-159.146 -9.021,-164.086 -12.41,-167.276C-15.931,-170.606 -21.58,-171.076 -26.061,-172.106C-30.771,-173.186 -35.45,-174.136 -40.19,-175.086C-41.641,-175.376 -43.21,-175.106 -44.42,-174.296C-46.34,-173.006 -48.2,-171.296 -49.851,-169.656C-54,-165.506 -61.2,-164.526 -66.75,-164.236C-71.521,-163.986 -77.06,-164.246 -81.29,-166.656C-81.53,-166.786 -81.74,-166.586 -81.74,-166.376C-81.79,-166.306 -81.83,-166.236 -81.841,-166.156C-81.9,-166.156 -82.53,-165.106 -82.64,-164.906C-83.71,-163.066 -84.94,-161.566 -86.41,-160.016C-88.54,-157.766 -90.83,-155.146 -92.31,-152.416C-93.89,-149.526 -95,-146.206 -95.96,-143.076C-96.68,-140.746 -97.82,-138.066 -99.83,-136.606C-100.85,-135.866 -102.7,-135.966 -103.58,-135.036C-104.03,-134.546 -104.15,-133.396 -104.58,-133.106C-106.23,-131.976 -108.56,-133.696 -110.13,-134.266C-112.7,-135.206 -116,-134.296 -118.46,-133.396C-120.91,-132.496 -122.74,-130.286 -124.02,-128.096C-124.752,-126.831 -124.8,-125.721 -125.032,-124.353C-124.981,-123.651 -124.998,-122.939 -125.063,-122.299C-125.073,-121.978 -125.115,-121.669 -125.208,-121.393C-125.326,-120.925 -125.531,-120.601 -125.985,-120.299C-126.245,-120.125 -126.495,-120.1 -126.735,-120.016C-126.716,-119.477 -126.195,-118.211 -125.67,-118.046C-124.5,-117.686 -123.39,-119.156 -122.51,-119.716C-121.55,-120.336 -118.65,-121.236 -118.32,-122.526C-118.23,-122.906 -118.14,-123.216 -118.19,-123.616C-118.5,-124.996 -117.66,-125.966 -115.68,-126.516C-114.86,-125.916 -114.32,-125.356 -113.7,-124.586C-112.16,-122.696 -110.31,-121.016 -108.31,-119.636C-104.4,-116.946 -99.31,-116.446 -94.73,-116.856C-90.85,-117.196 -84.81,-117.466 -81.79,-120.316C-79.21,-122.756 -80.171,-126.816 -80.75,-129.876C-81.39,-133.286 -80.28,-134.886 -78.39,-137.596C-76.91,-139.706 -75.83,-142.186 -75.16,-144.656C-74.681,-146.406 -74.75,-148.396 -75.19,-150.346C-74.7,-149.366 -74.25,-148.356 -73.89,-147.266C-72.341,-142.606 -73.79,-139.116 -76.81,-135.546C-78.2,-133.896 -78.75,-132.426 -78.14,-130.276C-77.021,-126.326 -75.99,-122.446 -76.91,-118.316C-77.55,-115.426 -79.591,-112.946 -80.7,-110.226C-81.86,-107.386 -81.7,-104.166 -81.39,-101.166C-81.03,-97.606 -81.851,-94.626 -83.33,-91.986C-85.77,-89.716 -88.5,-87.726 -90.72,-85.266C-92.11,-83.726 -93.17,-82.426 -94.11,-80.536C-94.8,-79.156 -95.17,-77.596 -95.87,-76.246C-97.04,-73.996 -98.31,-72.676 -100.58,-71.466C-103.03,-70.166 -105.89,-70.036 -108.63,-69.926C-112.74,-69.746 -116.59,-69.946 -120.32,-67.916C-123.84,-66.006 -126.01,-62.226 -128,-58.896C-129.32,-56.686 -131.03,-55.206 -133.45,-54.366C-135.72,-53.566 -138.36,-54.306 -140.68,-54.426C-142.51,-54.516 -144.46,-54.476 -146.2,-53.866C-146.324,-53.822 -146.443,-53.765 -146.563,-53.711C-147.322,-53.049 -148.335,-52.534 -149.007,-51.995C-149.781,-51.375 -150.557,-50.838 -151.239,-50.137C-149.262,-50.741 -146.696,-50.485 -144.71,-50.466C-141.83,-50.436 -139.31,-49.016 -136.73,-47.896C-140.34,-47.946 -144,-48.086 -147.57,-47.625C-151.74,-47.096 -155.63,-45.836 -159.41,-44.016C-161.512,-43.002 -163.868,-41.496 -165.146,-39.405C-165.328,-38.95 -165.424,-38.478 -165.435,-37.977C-165.426,-37.984 -165.416,-37.993 -165.407,-38C-165.215,-38.138 -164.986,-38.275 -164.745,-38.406C-164.346,-38.781 -163.835,-39.052 -163.328,-39.14C-162.223,-39.333 -161.38,-38.94 -160.341,-38.621C-160.116,-38.551 -159.933,-38.31 -159.943,-38.073C-159.939,-38.071 -159.935,-38.069 -159.93,-38.066C-159.938,-38.054 -159.949,-38.043 -159.957,-38.032C-159.967,-37.967 -159.981,-37.902 -160.024,-37.842C-160.674,-36.955 -161.44,-36.174 -162.335,-35.536C-162.065,-35.357 -161.815,-35.185 -161.621,-35.045C-160.902,-34.531 -159.947,-33.64 -159.688,-32.678C-159.582,-32.679 -159.476,-32.719 -159.4,-32.836C-156.68,-37.026 -150.28,-37.486 -146.02,-35.976C-144.52,-35.446 -143.33,-34.526 -142.34,-33.396C-144,-33.636 -145.67,-33.776 -147.31,-33.766C-150.54,-33.747 -153.15,-32.566 -155.91,-31.016C-157.189,-30.295 -158.323,-29.633 -159.628,-29.099C-161.27,-27.751 -164.275,-27.131 -166.549,-27.32C-166.569,-27.191 -166.515,-27.103 -166.4,-27.036C-166.48,-27.036 -165.74,-26.256 -165.62,-26.186C-164.75,-25.646 -163.85,-25.286 -162.83,-25.176C-162.77,-25.167 -162.69,-25.167 -162.62,-25.167C-162.8,-25.036 -162.98,-24.917 -163.15,-24.776C-164.43,-23.646 -165.2,-22.426 -165.8,-21.096C-170.68,-19.376 -175.85,-15.816 -177.1,-10.756C-178.51,-9.747 -179.7,-8.486 -180.21,-6.896C-180.24,-6.866 -180.26,-6.826 -180.27,-6.766C-180.28,-6.726 -180.28,-6.686 -180.29,-6.646C-180.37,-6.366 -180.43,-6.076 -180.45,-5.766C-180.46,-5.747 -180.44,-5.736 -180.44,-5.716C-180.56,-4.946 -180.66,-4.167 -180.59,-3.396C-180.58,-3.276 -180.53,-3.167 -180.4,-3.136C-179.19,-2.806 -177.66,1.824 -177.29,2.944C-177.14,3.394 -177.01,3.844 -176.88,4.304C-177.23,5.554 -177.44,6.793 -177.51,7.944C-177.61,9.524 -177.33,11.104 -177.33,12.684C-177.32,14.014 -177.41,15.264 -177.46,16.604C-177.525,18.25 -177.176,20.603 -178.138,22.108C-178.395,22.81 -178.6,23.519 -178.413,24.277C-178.365,24.268 -178.321,24.249 -178.3,24.204C-177.85,23.304 -176.68,22.474 -175.6,22.644C-174.54,22.814 -173.89,24.064 -173.58,24.944L-173.58,24.964C-173.49,25.424 -173.43,25.894 -173.38,26.364C-173.37,26.884 -173.39,27.414 -173.3,27.914C-173.31,28.664 -173.39,29.404 -173.57,30.124C-173.78,30.964 -174.05,31.784 -173.49,32.514C-171.589,34.925 -169.99,38.912 -166.585,39.616C-167.388,38.614 -167.989,37.401 -168.323,36.262C-168.633,35.204 -169.03,33.916 -168.985,32.723C-169.399,28.712 -168.418,24.336 -167.25,20.864C-165.43,15.434 -161.1,10.744 -156.5,7.464C-153.38,5.234 -149.57,4.174 -146.07,2.594C-146.47,3.374 -146.88,4.154 -147.33,4.914C-149.04,7.784 -150.78,10.624 -152.59,13.434C-153.132,14.27 -153.526,15.19 -153.803,16.143C-153.883,16.535 -153.946,16.93 -153.961,17.336C-153.981,17.88 -153.922,18.459 -153.873,19.042C-153.327,17.074 -150.864,16.513 -148.75,16.494C-149.36,18.474 -149.98,20.444 -150.6,22.424C-151.42,25.024 -152.62,27.374 -153.64,29.894C-154.333,31.596 -154.865,33.934 -154.129,35.698C-154.006,35.404 -153.854,35.123 -153.673,34.875C-152.897,33.518 -151.387,33.041 -149.83,33.514C-149.67,33.564 -149.53,33.614 -149.39,33.684C-149.56,36.094 -149.8,38.514 -149.75,40.934C-149.725,42.236 -149.437,43.399 -148.959,44.435C-148.405,45.332 -147.774,46.176 -146.924,46.905C-145.759,47.904 -144.529,48.767 -143.103,49.347C-142.792,49.473 -142.513,49.593 -142.247,49.73C-143.45,47.242 -144.206,44.592 -144.658,41.834C-144.908,40.314 -145.069,38.541 -144.823,36.897C-144.716,35.06 -144.321,33.25 -143.87,31.454C-143.11,28.424 -142.75,25.354 -140.98,22.674C-138.16,18.364 -134.7,14.494 -130.06,12.083C-124.68,9.304 -118.93,7.234 -112.94,6.253C-107.15,5.314 -101.74,4.124 -96.2,2.144C-90.89,0.234 -85.38,-1.366 -80.55,-4.386C-75.9,-7.296 -71.729,-10.546 -68.15,-14.686C-66.65,-16.417 -65.59,-18.417 -64.28,-20.286C-63.54,-21.346 -62.67,-22.596 -62.061,-23.917C-62.181,-22.716 -62.37,-21.516 -62.66,-20.316C-63.851,-15.446 -67.42,-11.976 -70.761,-8.466C-72.4,-6.747 -74.681,-6.146 -76.69,-5.076C-78.46,-4.136 -79.421,-2.086 -81.12,-0.957C-81.8,-0.516 -83.16,-0.286 -83.421,0.583C-83.8,1.884 -82.091,0.244 -83.75,3.174C-83.931,3.474 -84.19,3.793 -84.49,4.104C-85.47,3.784 -86.29,3.824 -87.32,3.944C-89.26,4.154 -91.2,4.244 -92.96,5.043C-92.615,4.233 -92.19,3.335 -92.296,2.504C-93.017,3.589 -93.99,4.413 -95.312,4.826C-95.937,5.021 -97.078,5.555 -97.998,5.591C-98.465,5.752 -98.924,5.902 -99.35,6.034C-102.09,6.894 -105.02,7.244 -107.86,7.503C-112.73,7.944 -118.02,8.083 -122.57,10.014C-126,11.464 -130.13,14.114 -131.55,17.784C-132.272,19.664 -133.056,23.143 -132.12,25.408C-131.163,26.634 -130.071,27.698 -128.457,28.198C-127.038,28.637 -125.729,28.687 -124.423,28.414C-126.332,27.923 -127.59,27.167 -127.59,24.884C-127.6,22.954 -126.64,21.384 -125.35,20.043C-124.95,19.625 -124.472,19.277 -123.958,18.972C-119.684,15.152 -111.417,16.184 -106.408,16.588C-102.012,16.943 -97.584,17.257 -93.203,17.754C-92.854,17.793 -92.51,17.821 -92.166,17.85C-91.527,17.813 -90.887,17.761 -90.24,17.674C-87.92,17.374 -84.54,16.774 -82.54,15.524C-80.37,14.184 -77.91,13.184 -75.64,12.003C-73.11,10.674 -70.771,9.253 -68.431,7.594C-66.51,6.214 -64.66,4.833 -62.87,3.284C-60.66,1.364 -58.92,-0.966 -56.931,-3.106C-55.351,-4.816 -53.82,-7.066 -52.7,-9.086C-52.2,-9.986 -51.41,-10.766 -51.08,-11.747C-50.57,-13.256 -50.23,-14.816 -49.5,-16.247C-48.45,-18.336 -46.86,-20.076 -45.75,-22.116C-44.63,-24.186 -44.55,-27.056 -44.09,-29.306C-43.89,-30.281 -43.643,-31.213 -43.328,-32.111C-43.284,-33.622 -41.731,-35.654 -41.057,-36.593C-40.288,-37.664 -39.294,-38.56 -38.169,-39.249C-38.21,-39.279 -38.259,-39.299 -38.32,-39.296C-41.12,-39.236 -43.87,-37.346 -45.851,-35.466C-45.78,-35.776 -45.71,-36.096 -45.66,-36.417C-45.431,-37.656 -44.26,-39.576 -43.13,-40.167C-41.98,-40.756 -40.45,-40.716 -39.37,-41.396C-37.101,-42.827 -36.24,-44.866 -34.521,-46.816C-32.46,-49.157 -30.54,-50.966 -27.88,-52.696C-22.7,-56.077 -17.99,-59.407 -13.9,-64.126C-11.21,-67.216 -8.601,-70.776 -7.49,-74.766C-7.181,-75.536 -6.91,-76.316 -6.7,-77.106C-6.23,-78.926 -5.01,-80.746 -3.99,-82.316C-3.271,-83.426 -2.2,-84.376 -1.3,-85.346C-0.55,-86.166 0.03,-87.156 0.79,-87.976C3.22,-90.566 4.97,-93.106 6.8,-96.126C8.75,-99.346 8.85,-102.976 8.84,-106.626C8.83,-110.656 8.66,-114.606 8.95,-118.626C9.22,-122.456 9.53,-126.286 9.229,-130.116" style="fill:rgb(35,31,32);fill-rule:nonzero;"/>
        </g>
    </g>
</svg>
