<?xml version="1.0" encoding="UTF-8" standalone="no"?>
<!DOCTYPE svg PUBLIC "-//W3C//DTD SVG 1.1//EN" "http://www.w3.org/Graphics/SVG/1.1/DTD/svg11.dtd">
<svg width="100%" height="100%" viewBox="0 0 1201 1201" version="1.1" xmlns="http://www.w3.org/2000/svg" xmlns:xlink="http://www.w3.org/1999/xlink" xml:space="preserve" xmlns:serif="http://www.serif.com/" style="fill-rule:evenodd;clip-rule:evenodd;stroke-linejoin:round;stroke-miterlimit:2;">
    <g id="Layer-1" serif:id="Layer 1" transform="matrix(4.16667,0,0,4.16667,-290,-336)">
        <g transform="matrix(1,0,0,1,216.55,239.17)">
            <path d="M0,0.221C-0.11,0.151 -0.18,0.11 -0.23,0.09C-0.11,0.01 -0.05,0 -0.05,0L0,0.221Z" style="fill:rgb(35,31,32);fill-rule:nonzero;"/>
        </g>
        <g transform="matrix(1,0,0,1,163.08,159.6)">
            <path d="M0,-0.02C0,-0.02 0.05,-0.1 0.14,-0.24C0.27,0.12 0.24,0.22 0,-0.02" style="fill:rgb(35,31,32);fill-rule:nonzero;"/>
        </g>
        <g transform="matrix(1,0,0,1,210.76,216.08)">
            <path d="M0,9.63C-0.28,9.82 -0.47,10.01 -0.76,10.17C-0.43,11.33 -0.43,12.529 -0.53,13.641C-0.69,15.391 -0.99,17.17 -1.58,18.83C-1.83,19.52 -1.97,20.061 -2.42,20.63C-2.44,20.651 -2.8,20.93 -2.8,20.85C-2.84,20.99 -3,21.09 -3.15,21.05L-3.15,21.09C-3.15,21.19 -3.31,21.24 -3.36,21.141C-3.39,21.061 -3.43,20.981 -3.46,20.901C-3.47,20.891 -3.47,20.88 -3.48,20.88L-3.48,20.859C-4.27,19.16 -4.82,17.46 -5.86,15.981C-8.22,18.279 -11.81,19.609 -14.84,19.71C-17.59,19.8 -20.5,19.96 -23.24,19.699C-25.51,19.481 -26.76,19.27 -28.83,18.27C-31.46,17 -34.1,15.47 -36.56,13.901C-38.59,12.609 -41.12,11.44 -42.81,9.699C-44.11,8.37 -44.64,5.12 -44.91,3.37C-45.17,1.68 -45.53,-0.06 -45.72,-1.79C-45.98,-2.78 -46.06,-3.89 -45.99,-4.76C-45.98,-4.88 -45.93,-4.98 -45.85,-5.06C-45.8,-5.18 -45.7,-5.28 -45.55,-5.31C-46.13,-5.21 -44.8,-6.02 -44.5,-6.33C-43.7,-7.14 -42.63,-7.87 -41.65,-8.46C-39.92,-9.48 -38.3,-10.57 -36.49,-11.47C-36.22,-11.61 -35.97,-11.54 -35.8,-11.39C-35.07,-11.34 -34.27,-10.97 -33.71,-10.79C-29.48,-9.44 -25.44,-7.14 -21.61,-4.92C-17.91,-2.77 -14.12,-0.71 -10.66,1.811C-8.86,3.12 -6.84,4.51 -4.68,5.04C-2.56,5.55 1.18,4.859 2.3,2.59C2.33,2.52 2.38,2.481 2.43,2.46C2.53,2.26 2.88,2.279 2.92,2.52C3.09,3.561 3.78,4.05 3.4,5.29C2.89,6.96 1.41,8.67 0,9.63" style="fill:rgb(35,31,32);fill-rule:nonzero;"/>
        </g>
        <g transform="matrix(1,0,0,1,163.22,145.67)">
            <path d="M0,13.69C-0.36,12.69 -1.9,9.71 -3.36,6.26C-0.56,3.94 2.17,1.86 4.83,0C4.09,6.74 0.72,12.51 0,13.69" style="fill:rgb(35,31,32);fill-rule:nonzero;"/>
        </g>
        <g transform="matrix(1,0,0,1,181.31,159.69)">
            <path d="M0,-22.01C11.2,-27.65 20.33,-29.45 26.4,-29.9C24.16,-8.31 15.11,7.89 15.11,7.89C7.53,1.37 1.98,-15.31 0,-22.01" style="fill:rgb(35,31,32);fill-rule:nonzero;"/>
        </g>
        <g transform="matrix(1,0,0,1,274.53,216.784)">
            <path d="M0,-1.094C-0.99,2.336 -2.07,5.786 -2.561,9.325C-2.891,11.726 -3.261,14.266 -3.3,16.786C-7.95,20.437 -12.67,24.066 -17.721,27.056C-20.721,28.826 -23.931,30.396 -26.83,32.316C-28.42,33.376 -30.07,34.376 -31.681,35.396C-32.38,35.846 -33.48,36.456 -33.71,37.366C-35.391,44.106 -35.061,51.106 -35.811,57.976C-36.21,61.736 -36.25,65.666 -36.21,69.476C-37.28,68.316 -38.74,67.126 -40.351,66.806C-40.351,66.806 -40.24,68.776 -40.811,71.126C-41.03,71.886 -41.28,72.626 -41.65,73.336C-42.011,74.046 -42.45,74.706 -42.9,75.336C-44.22,73.856 -46.04,71.086 -46.351,66.806C-46.351,66.806 -48.45,66.336 -51.32,72.966C-51.33,72.996 -51.341,73.016 -51.36,73.046C-51.61,73.566 -51.87,74.106 -52.091,74.646C-52.8,73.246 -55.69,67.726 -58.01,66.136C-58.01,66.136 -58.06,66.186 -58.14,66.276C-58.18,66.236 -58.2,66.216 -58.2,66.216C-60.521,67.806 -63.41,73.326 -64.12,74.726C-64.34,74.186 -64.6,73.646 -64.85,73.126C-64.87,73.096 -64.88,73.076 -64.89,73.046C-67.76,66.416 -69.86,66.886 -69.86,66.886C-70.17,71.166 -71.99,73.936 -73.31,75.416C-73.76,74.786 -74.2,74.126 -74.56,73.416C-74.93,72.706 -75.18,71.966 -75.4,71.206C-75.97,68.856 -75.86,66.886 -75.86,66.886C-77.47,67.206 -78.93,68.396 -80,69.556C-79.96,65.746 -80,61.816 -80.4,58.056C-81.15,51.186 -80.82,44.186 -82.5,37.447C-82.73,36.536 -83.83,35.926 -84.53,35.476C-86.14,34.456 -87.79,33.456 -89.38,32.396C-92.28,30.476 -95.49,28.906 -98.49,27.136C-103.54,24.146 -108.26,20.516 -112.91,16.866C-112.95,14.346 -113.32,11.806 -113.65,9.406C-114.14,5.866 -115.22,2.416 -116.21,-1.014C-116.73,-2.824 -117.42,-4.584 -118.3,-6.244C-117.2,-8.154 -116.04,-10.004 -114.42,-11.644C-112.98,-13.114 -111.43,-14.464 -110.01,-15.974C-109.54,-16.484 -108.85,-17.024 -108.33,-17.624C-107.84,-17.464 -107.35,-17.304 -106.89,-17.154C-104.59,-16.384 -102.32,-15.614 -99.99,-14.924C-95.23,-13.514 -90.44,-11.804 -85.59,-10.734C-80.83,-9.684 -76.28,-7.814 -71.76,-6.054C-67.9,-4.554 -63.95,-2.804 -59.82,-2.304C-59.25,-2.174 -58.68,-2.164 -58.12,-2.264C-57.6,-2.174 -57.06,-2.174 -56.53,-2.284L-56.53,-2.364C-56.48,-2.364 -56.44,-2.374 -56.39,-2.384C-52.261,-2.884 -48.31,-4.634 -44.45,-6.134C-39.931,-7.894 -35.38,-9.764 -30.62,-10.814C-25.771,-11.884 -20.98,-13.594 -16.221,-15.004C-13.891,-15.694 -11.62,-16.464 -9.32,-17.234C-8.86,-17.384 -8.37,-17.544 -7.88,-17.704C-7.36,-17.104 -6.67,-16.564 -6.2,-16.054C-4.78,-14.544 -3.23,-13.194 -1.79,-11.724C-0.17,-10.084 0.989,-8.234 2.09,-6.324C1.21,-4.664 0.52,-2.904 0,-1.094M-58.124,-125.94C-58.284,-124.38 -58.486,-122.759 -58.666,-121.098C-61.166,-97.469 -64.566,-80.839 -67.826,-69.288C-68.936,-64.859 -70.326,-60.469 -72.176,-56.328C-72.186,-56.268 -72.216,-56.209 -72.246,-56.158C-73.036,-54.399 -73.766,-52.669 -74.556,-50.959C-75.086,-49.799 -75.646,-48.649 -76.276,-47.509C-76.786,-46.578 -77.466,-45.728 -78.216,-44.919C-78.656,-45.259 -94.156,-55.948 -98.916,-96.629C-101.156,-90.799 -102.856,-79.299 -102.856,-79.299C-104.176,-65.299 -109.266,-56.678 -110.476,-54.808C-110.506,-54.748 -110.546,-54.698 -110.576,-54.649C-110.636,-54.549 -110.686,-54.478 -110.706,-54.448C-110.716,-54.428 -110.726,-54.419 -110.726,-54.419C-115.026,-56.908 -126.036,-85.489 -126.376,-86.379C-126.386,-86.388 -126.386,-86.399 -126.386,-86.399L-126.376,-86.259C-126.376,-86.259 -126.356,-64.469 -127.356,-59.799C-127.356,-59.799 -127.526,-33.719 -127.106,-28.719C-127.106,-28.719 -126.026,4.612 -130.606,12.781C-130.606,12.781 -137.316,25.302 -135.416,30.331L-135.416,30.341C-134.936,30.272 -134.416,30.012 -133.956,29.972C-133.796,29.951 -133.636,29.961 -133.476,29.951C-124.706,37.062 -114.836,42.671 -106.326,50.152C-105.286,51.072 -104.296,52.041 -103.336,53.041C-101.706,54.722 -101.156,56.591 -100.676,58.822C-100.036,61.772 -99.796,65.012 -99.766,68.051C-100.226,66.402 -100.766,64.801 -101.386,63.312C-102.946,59.591 -104.726,56.241 -107.606,53.312C-110.216,50.661 -113.296,48.472 -116.346,46.362C-117.466,45.501 -118.456,44.751 -118.896,44.451C-118.896,44.451 -115.486,66.362 -120.396,75.451C-120.396,75.451 -119.346,76.531 -117.746,78.451L-117.776,78.451C-117.776,78.451 -91.446,117.031 -90.696,124.862C-90.696,124.862 -90.116,124.201 -89.296,123.051C-89.216,123.012 -89.156,122.942 -89.146,122.841C-87.386,120.371 -84.666,115.902 -83.926,111.031C-83.496,109.312 -83.176,107.602 -82.976,105.961C-82.896,105.281 -82.816,104.602 -82.736,103.902C-82.736,103.892 -82.736,103.881 -82.726,103.871C-81.816,98.871 -80.416,92.102 -79.156,89.161C-78.406,91.631 -76.776,95.631 -73.526,98.281C-73.526,98.281 -73.186,97.892 -72.676,97.251C-72.276,96.892 -71.956,96.411 -71.666,95.921C-70.556,94.432 -69.256,92.461 -68.626,90.772C-67.386,92.411 -65.316,95.612 -64.856,99.451C-64.856,99.451 -64.086,99.012 -63.666,98.551C-63.636,98.522 -63.616,98.482 -63.586,98.451C-63.216,97.972 -60.026,91.841 -58.066,90.312C-57.696,90.701 -57.336,91.081 -56.996,91.432C-55.126,93.762 -52.916,97.982 -52.616,98.371C-52.586,98.402 -52.565,98.442 -52.536,98.472C-52.116,98.932 -51.346,99.371 -51.346,99.371C-50.886,95.531 -48.815,92.331 -47.575,90.692C-46.946,92.381 -45.646,94.352 -44.536,95.841C-44.246,96.331 -43.926,96.812 -43.526,97.171C-43.017,97.812 -42.677,98.201 -42.677,98.201C-39.427,95.551 -37.796,91.551 -37.046,89.081C-35.786,92.022 -34.386,98.791 -33.476,103.791C-33.466,103.801 -33.466,103.812 -33.466,103.822C-33.386,104.522 -33.306,105.201 -33.226,105.881C-33.026,107.522 -32.706,109.232 -32.276,110.951C-31.536,115.822 -28.815,120.291 -27.056,122.762C-27.046,122.862 -26.985,122.932 -26.905,122.972C-26.085,124.121 -25.507,124.781 -25.507,124.781C-24.757,116.951 1.573,78.371 1.573,78.371L1.544,78.371C3.144,76.451 4.194,75.371 4.194,75.371C-0.716,66.281 2.694,44.371 2.694,44.371C2.255,44.671 1.265,45.421 0.144,46.281C-2.905,48.392 -5.985,50.581 -8.597,53.232C-11.476,56.161 -13.257,59.512 -14.815,63.232C-15.437,64.722 -15.976,66.322 -16.437,67.972C-16.405,64.932 -16.165,61.692 -15.526,58.741C-15.046,56.512 -14.495,54.642 -12.866,52.961C-11.905,51.961 -10.915,50.991 -9.876,50.072C-1.366,42.591 8.505,36.982 17.274,29.871C17.435,29.881 17.595,29.871 17.755,29.892C18.214,29.932 18.733,30.192 19.214,30.262L19.214,30.251C21.114,25.222 14.403,12.701 14.403,12.701C9.823,4.531 10.903,-28.799 10.903,-28.799C11.323,-33.799 11.153,-59.879 11.153,-59.879C10.153,-64.549 10.175,-86.339 10.175,-86.339L10.185,-86.478C10.185,-86.478 10.185,-86.469 10.175,-86.459C9.835,-85.569 -1.177,-56.989 -5.476,-54.498C-5.476,-54.498 -5.485,-54.509 -5.495,-54.529C-5.517,-54.558 -5.565,-54.629 -5.626,-54.728C-5.655,-54.779 -5.696,-54.828 -5.726,-54.888C-6.937,-56.759 -12.026,-65.379 -13.347,-79.379C-13.347,-79.379 -15.046,-90.879 -17.286,-96.709C-22.046,-56.029 -37.546,-45.339 -37.985,-44.998C-38.735,-45.808 -39.415,-46.658 -39.927,-47.589C-40.556,-48.728 -41.116,-49.879 -41.646,-51.038C-42.437,-52.748 -43.165,-54.478 -43.956,-56.239C-43.985,-56.288 -44.017,-56.348 -44.026,-56.408C-45.876,-60.549 -47.267,-64.939 -48.376,-69.368C-51.636,-80.919 -55.036,-97.549 -57.536,-121.178C-57.716,-122.839 -57.901,-124.396 -58.062,-125.956" style="fill:rgb(35,31,32);fill-rule:nonzero;"/>
        </g>
        <g transform="matrix(1,0,0,1,224.359,243.788)">
            <path d="M0,23.532C0.031,24.122 -0.02,24.721 -0.159,25.292C-0.17,25.311 -0.17,25.322 -0.17,25.332C-0.26,26.002 -0.34,26.372 -0.34,26.372C-0.6,26.981 -0.93,27.292 -1.26,27.431C-1.27,27.452 -1.289,27.462 -1.299,27.481C-1.699,27.912 -2.56,28.061 -2.909,27.492C-4.17,25.431 -5.159,23.221 -6.489,21.202C-6.989,20.452 -7.509,19.752 -8,19.021C-8.489,19.752 -9.009,20.452 -9.509,21.202C-9.54,21.242 -9.569,21.292 -9.589,21.332C-10.859,23.292 -11.819,25.422 -13.04,27.412C-13.389,27.981 -14.25,27.832 -14.649,27.402C-14.659,27.382 -14.679,27.372 -14.689,27.351C-15.02,27.212 -15.35,26.902 -15.609,26.292C-15.609,26.292 -15.689,25.922 -15.779,25.252C-15.779,25.242 -15.779,25.231 -15.79,25.212C-15.929,24.641 -15.979,24.042 -15.949,23.452C-16.159,20.042 -15.939,13.902 -12.889,6.891C-12.889,6.882 -12.879,6.872 -12.879,6.872C-12.859,6.802 -12.839,6.742 -12.83,6.672C-12.85,6.641 -12.859,6.632 -12.859,6.632C-12.609,5.721 -12.369,4.882 -12.129,4.112C-11.729,2.652 -11.279,1.202 -10.659,-0.158C-9.399,-3.279 -8.5,-4.218 -8.1,-4.498C-8.08,-4.509 -8.069,-4.519 -8.049,-4.529L-8.04,-4.529C-7.989,-4.509 -7.919,-4.468 -7.81,-4.398C-7.389,-4.078 -6.51,-3.109 -5.289,-0.078C-4.67,1.282 -4.219,2.731 -3.819,4.192C-3.58,4.962 -3.34,5.802 -3.09,6.712C-3.09,6.712 -3.1,6.721 -3.119,6.752C-3.109,6.822 -3.09,6.882 -3.069,6.952C-3.069,6.952 -3.06,6.962 -3.06,6.971C-0.01,13.981 0.211,20.122 0,23.532" style="fill:rgb(35,31,32);fill-rule:nonzero;"/>
        </g>
        <g transform="matrix(1,0,0,1,216.31,239.28)">
            <path d="M0,-0.02C-0.02,-0.01 -0.03,0 -0.05,0.01L-0.04,-0.03C-0.04,-0.03 -0.03,-0.03 0,-0.02" style="fill:rgb(35,31,32);fill-rule:nonzero;"/>
        </g>
        <g transform="matrix(1,0,0,1,269.691,159.35)">
            <path d="M0,-0.02C0,-0.02 -0.05,-0.1 -0.141,-0.24C-0.27,0.12 -0.24,0.22 0,-0.02" style="fill:rgb(35,31,32);fill-rule:nonzero;"/>
        </g>
        <g transform="matrix(1,0,0,1,222.012,215.996)">
            <path d="M0,9.631C0.279,9.82 0.47,10.01 0.76,10.17C0.43,11.33 0.43,12.529 0.529,13.641C0.689,15.391 0.99,17.17 1.58,18.83C1.83,19.52 1.97,20.061 2.42,20.631C2.439,20.651 2.8,20.93 2.8,20.85C2.84,20.99 3,21.09 3.15,21.051L3.15,21.09C3.15,21.19 3.31,21.24 3.359,21.141C3.39,21.061 3.43,20.981 3.46,20.901C3.47,20.891 3.47,20.881 3.48,20.881L3.48,20.86C4.27,19.16 4.82,17.461 5.859,15.981C8.22,18.279 11.81,19.61 14.84,19.711C17.59,19.801 20.5,19.961 23.24,19.699C25.51,19.481 26.76,19.27 28.83,18.27C31.46,17 34.1,15.471 36.56,13.901C38.59,12.61 41.119,11.44 42.81,9.699C44.109,8.371 44.64,5.121 44.91,3.371C45.17,1.68 45.529,-0.06 45.72,-1.789C45.98,-2.78 46.06,-3.89 45.99,-4.759C45.98,-4.879 45.93,-4.98 45.85,-5.06C45.8,-5.179 45.699,-5.28 45.55,-5.31C46.13,-5.209 44.8,-6.019 44.5,-6.329C43.699,-7.14 42.63,-7.869 41.65,-8.459C39.92,-9.48 38.3,-10.57 36.49,-11.47C36.22,-11.609 35.97,-11.539 35.8,-11.39C35.07,-11.339 34.27,-10.97 33.71,-10.789C29.48,-9.439 25.439,-7.14 21.609,-4.919C17.91,-2.769 14.119,-0.709 10.66,1.811C8.859,3.121 6.84,4.51 4.68,5.041C2.56,5.551 -1.18,4.86 -2.301,2.59C-2.33,2.52 -2.381,2.481 -2.43,2.461C-2.53,2.26 -2.881,2.279 -2.92,2.52C-3.09,3.561 -3.78,4.051 -3.4,5.291C-2.891,6.961 -1.41,8.67 0,9.631" style="fill:rgb(35,31,32);fill-rule:nonzero;"/>
        </g>
        <g transform="matrix(1,0,0,1,269.551,145.42)">
            <path d="M0,13.69C0.361,12.69 1.9,9.71 3.361,6.26C0.561,3.94 -2.17,1.86 -4.829,0C-4.09,6.74 -0.719,12.51 0,13.69" style="fill:rgb(35,31,32);fill-rule:nonzero;"/>
        </g>
        <g transform="matrix(1,0,0,1,251.461,159.44)">
            <path d="M0,-22.01C-11.199,-27.65 -20.33,-29.45 -26.399,-29.9C-24.16,-8.31 -15.109,7.89 -15.109,7.89C-7.529,1.37 -1.979,-15.31 0,-22.01" style="fill:rgb(35,31,32);fill-rule:nonzero;"/>
        </g>
    </g>
</svg>
