<?xml version="1.0" encoding="UTF-8" standalone="no"?>
<!DOCTYPE svg PUBLIC "-//W3C//DTD SVG 1.1//EN" "http://www.w3.org/Graphics/SVG/1.1/DTD/svg11.dtd">
<svg width="100%" height="100%" viewBox="0 0 1455 1454" version="1.1" xmlns="http://www.w3.org/2000/svg" xmlns:xlink="http://www.w3.org/1999/xlink" xml:space="preserve" xmlns:serif="http://www.serif.com/" style="fill-rule:evenodd;clip-rule:evenodd;stroke-miterlimit:10;">
    <g id="Layer-2" serif:id="Layer 2" transform="matrix(4.16667,0,0,4.16667,-215,-189)">
        <g transform="matrix(1,0,0,1,246.523,231.51)">
            <path d="M0,25.198L145.81,36.332L70.595,-11.134C70.595,-11.134 77.991,0.229 77.078,8.462C76.273,15.703 68.847,16.109 68.847,16.109C68.847,16.109 63.167,15.511 60.974,12.095C55.838,4.094 58.795,-0.894 58.795,-0.894L47.823,-8.102L22.362,-4.295L0,25.198Z" style="stroke:black;stroke-width:1px;"/>
        </g>
        <g transform="matrix(1,0,0,1,268.924,122.251)">
            <path d="M0,104.233L99.788,0L14.837,27.771C14.837,27.771 28.563,29.212 34.599,35.038C39.908,40.163 35.606,46.079 35.606,46.079C35.606,46.079 31.588,50.037 27.48,49.58C17.86,48.51 15.701,43.148 15.701,43.148L3.081,47.022L-9.729,68.806L0,104.233Z" style="stroke:black;stroke-width:1px;"/>
        </g>
        <g transform="matrix(1,0,0,1,259.171,49.7959)">
            <path d="M0,141.02L-21.519,0L-52.132,82.086C-52.132,82.086 -42.427,72.515 -33.992,71.54C-26.572,70.682 -24.503,77.647 -24.503,77.647C-24.503,77.647 -23.828,83.177 -26.753,86.025C-33.603,92.696 -39.251,91.004 -39.251,91.004L-44.001,103.041L-34.494,126.378L0,141.02Z" style="stroke:black;stroke-width:1px;"/>
        </g>
        <g transform="matrix(1,0,0,1,224.639,123.595)">
            <path d="M0,53.675L-126.843,-17.304L-79.756,57.006C-79.756,57.006 -81.443,43.649 -76.998,36.593C-73.087,30.386 -66.199,33.122 -66.199,33.122C-66.199,33.122 -61.33,36.035 -60.851,40.038C-59.729,49.413 -64.592,52.684 -64.592,52.684L-57.849,63.78L-33.171,70.979L0,53.675Z" style="stroke:black;stroke-width:1px;"/>
        </g>
        <g transform="matrix(1,0,0,1,191.111,258.102)">
            <path d="M0,-62.885L-135.986,-10.401L-47.023,0C-47.023,0 -58.792,-7.037 -61.683,-14.822C-64.227,-21.672 -57.739,-25.218 -57.739,-25.218C-57.739,-25.218 -52.368,-27.116 -48.858,-24.987C-40.637,-20.002 -41.043,-14.255 -41.043,-14.255L-27.938,-12.482L-6.786,-26.812L0,-62.885Z" style="stroke:black;stroke-width:1px;"/>
        </g>
        <g transform="matrix(1,0,0,1,184.241,367.92)">
            <path d="M0,-136.401L-42.562,0L21.189,-61.374C21.189,-61.374 8.212,-56.781 0.163,-59.424C-6.918,-61.75 -5.726,-68.907 -5.726,-68.907C-5.726,-68.907 -3.904,-74.185 -0.009,-75.537C9.113,-78.702 13.473,-74.813 13.473,-74.813L23.057,-83.704L24.728,-108.76L0,-136.401Z" style="stroke:black;stroke-width:1px;"/>
        </g>
        <g transform="matrix(1,0,0,1,208.969,374.105)">
            <path d="M0,-115.446L83.296,1.744L73.499,-85.074C73.499,-85.074 69.139,-72.304 62.017,-67.793C55.751,-63.824 50.734,-69.178 50.734,-69.178C50.734,-69.178 47.62,-73.846 48.95,-77.662C52.066,-86.598 57.899,-87.517 57.899,-87.517L56.697,-100.361L37.58,-117.19L0,-115.446Z" style="stroke:black;stroke-width:1px;"/>
        </g>
    </g>
</svg>
