<?xml version="1.0" encoding="UTF-8" standalone="no"?>
<!DOCTYPE svg PUBLIC "-//W3C//DTD SVG 1.1//EN" "http://www.w3.org/Graphics/SVG/1.1/DTD/svg11.dtd">
<svg width="100%" height="100%" viewBox="0 0 1200 1200" version="1.1" xmlns="http://www.w3.org/2000/svg" xmlns:xlink="http://www.w3.org/1999/xlink" xml:space="preserve" xmlns:serif="http://www.serif.com/" style="fill-rule:evenodd;clip-rule:evenodd;stroke-linejoin:round;stroke-miterlimit:2;">
    <g id="Layer-1" serif:id="Layer 1" transform="matrix(4.16667,0,0,4.16667,-305,-337)">
        <g transform="matrix(1,0,0,1,294.4,130.61)">
            <path d="M0,151.24L-5.98,143.95L11.22,89.73L17.659,147.36L9.89,150.801L0,151.24ZM-23.681,94.65L-29.58,87.291L-11.771,33.27L-5.971,90.97L-13.78,94.32L-23.681,94.65ZM-53.431,152.69L-63.15,150.841L-70.36,146.32L-55.721,90.211L-46.46,146.331L-53.431,152.69ZM-82.84,94.761L-90.371,90.81L-80.13,33.73L-66.551,88.97L-73,95.85L-82.84,94.761ZM-105.141,152.1L-114.851,154.06L-121.891,147.78L-113.271,91.56L-97.99,147.501L-105.141,152.1ZM-131.93,95.121L-141.55,97.49L-148.84,91.501L-142.55,34.97L-124.98,90.23L-131.93,95.121ZM-156.22,152.47L-166.121,151.98L-173.88,148.511L-167.19,90.91L-150.21,145.2L-156.22,152.47ZM5.1,21.06L-5.44,21.08L-8.57,-13.67L-20.44,21.111L-51.131,21.18L-58.431,-13.23L-65.75,21.21L-93.5,21.27L-104.811,-14.31L-108.771,21.301L-130.271,21.341L-142.141,-15.98L-146.3,21.381L-151.73,21.39L-206.57,167.22L50.43,164.89L5.1,21.06Z" style="fill:rgb(35,31,32);fill-rule:nonzero;"/>
        </g>
        <g transform="matrix(0.99997,-0.00779703,-0.00779703,-0.99997,88.1178,302.167)">
            <path d="M0.057,1L256.564,1L251.765,-15.963L5.436,-14.543L0.057,1Z" style="fill:rgb(35,31,32);fill-rule:nonzero;"/>
        </g>
    </g>
</svg>
